<?xml version="1.0" encoding="UTF-8" standalone="no"?><!DOCTYPE svg PUBLIC "-//W3C//DTD SVG 1.1//EN" "http://www.w3.org/Graphics/SVG/1.1/DTD/svg11.dtd"><svg width="100%" height="100%" viewBox="0 0 1006 800" version="1.1" xmlns="http://www.w3.org/2000/svg" xmlns:xlink="http://www.w3.org/1999/xlink" xml:space="preserve" xmlns:serif="http://www.serif.com/" style="fill-rule:evenodd;clip-rule:evenodd;stroke-linejoin:round;stroke-miterlimit:2;"><g id="USA"><g><path d="M995.9,159.4c-1.3,0.5 -1.6,1.7 -2.1,2.8c-0.5,1.2 -1,2.4 -1.5,3.6c-8.9,0.5 -17.5,-0.1 -26.4,0.7c-0.3,2.1 -0.7,4 -0.8,5.9c-0.2,2.7 0,5.4 -0.2,8.1c-0.1,1.3 -0.6,2.6 -0.8,3.9c-0.2,0.8 -0.5,1.6 -0.4,2.5c0.1,1.8 0.2,3.7 0.6,5.5c0.2,1.1 0.8,2.2 1.1,2.8c-0.1,4.1 -0.4,7.8 -0.4,11.5c0.2,19.7 0.5,39.4 0.7,59.1l0,4c-0.9,0.9 -1.8,2 -2.9,3.2l0,44.8c-1.7,1.6 -3.2,3.1 -5,4.9c-0.2,-0.1 -0.9,-0.5 -1.5,-0.4c-6.5,1.3 -13,0.2 -19.5,0.6c-1.7,0.1 -3.4,0.4 -5.1,0.6c-0.6,0.1 -1.3,0.2 -1.8,0.1c-1.8,-0.5 -3.5,-0.3 -5.3,0c-3.1,0.6 -5,-1.4 -7.7,-3.2c-0.7,-3.4 -1.6,-7 -2.1,-10.8c-1.4,-9.5 -1,-19.2 -0.6,-28.7c0.3,-7.1 1.3,-14.2 1.9,-21.3c0.2,-2.6 0,-5.1 -0.2,-7.7c0.6,-1.4 1.2,-2.5 0.7,-4.4c-0.5,-1.8 0.1,-4.1 0.7,-6c0.7,-2.3 0.5,-4.3 -1.2,-6.2c0.6,-0.7 1.1,-1.3 1.8,-2c-0.5,-1.4 -0.9,-2.9 -1.4,-4.5c0.3,-0.5 0.6,-1 1,-1.6c-0.4,-3.9 -0.6,-8 -1.1,-12c-0.9,-7.2 -0.9,-14.4 -0.7,-21.6c0.1,-3.6 0.8,-7.3 1.3,-10.9c0.1,-0.8 0.4,-1.9 0,-2.5c-1.6,-2.9 -1.1,-6 -1.2,-9l0,-4.6c-1.9,-1.5 -4,-1.4 -5.9,-1.3c-5.4,0.3 -10.8,0.8 -16.2,1.3c-3.2,0.2 -6.3,0.4 -9.7,0.7c0,-1 0.1,-1.9 0.1,-2.1c-0.4,-2.1 -0.9,-3.6 -1,-5.2c-0.5,-7.5 -0.9,-15 -1.3,-22.4c-0.1,-2.8 0,-5.7 0,-8.7c1.8,-3.2 5.2,-3.1 8.8,-3.3c2.2,-2.1 5,-2.4 8,-2.3c16.7,0.4 33.5,0.7 50.2,1c11.3,0.2 22.6,0.3 33.9,0.5c2.7,0.1 5.1,-0.4 7.4,-1.7c1.3,-0.7 2.6,-1.4 4,-1.9c0.6,-0.2 1.4,0 2,0l0,19.2c-1.1,0.4 -1.3,1.3 -1.4,2.4c-0.3,1.8 -0.7,3.6 -1,5.4c-0.9,1.2 -3.6,1.5 -2.4,3.9c1.6,-0.7 2.9,-1.5 3.6,-3.2c0.1,-0.2 0.8,-0.2 1.2,-0.3c-0.2,3.4 -0.2,7.1 -0.2,10.8Zm-48.6,151c-1.4,0.9 -3.3,0.5 -3.9,2.6l8.1,-0c0.3,-1.1 0.6,-2.1 0.8,-3.1c-0.2,-0.1 -0.3,-0.1 -0.5,-0.2c-0.5,0.5 -0.9,1 -1.7,1.8c-0.4,-1.5 -0.8,-2.5 -1.2,-4.2c-0.7,1.4 -1.1,2.2 -1.6,3.1Zm0.7,-120.3c1.5,-0.7 2.5,-1.3 3.6,-1.8c-0.1,-1 -0.1,-1.8 -0.1,-2.5c-2,-0.4 -2,-0.4 -3.7,0.1c0,1.2 0,2.5 0.2,4.2Zm0.7,36.3c-0.3,3.8 -0.2,7 0.3,10.7c1.4,-3.5 1.3,-7.7 -0.3,-10.7Zm-11.3,-90c0.8,3 1.4,5.3 2,7.7c2.1,-2.8 1.6,-4.8 -2,-7.7Zm10.2,34.9c-0.8,1.8 -0.7,5.9 0.1,9.6c1.6,-3.3 0.8,-6.2 -0.1,-9.6Zm24.8,-34.3c-0.8,-0.4 -1.6,-0.8 -2.6,-1.3c-0.6,1.8 -0.6,3.2 0.8,4.5c1.8,-0.3 1.8,-1.6 1.8,-3.2Zm-44.9,-5.5c1,1.1 1.6,1.7 2.1,2.3c1.2,-0.6 2.5,-0.9 3.2,-2.3l-5.3,-0Zm-23.2,1.1c2.5,-0.3 4.5,-0.6 6.5,-0.9c-2.3,-1.3 -4.4,-1.1 -6.5,0.9Zm36.2,183.3c-0.5,-0.8 -0.9,-1.3 -1.2,-1.9c-1.4,0.4 -2.7,0.8 -4.6,1.4c2.3,1 3.9,0.6 5.8,0.5Zm8.3,-117.9c-1.4,3.4 -1.2,4.7 0.6,6.2c-0.1,-2 0.5,-3.8 -0.6,-6.2Zm-10.6,-48.9c0.9,1.6 2,1.6 3.5,1.4c-0.4,-1.1 -0.2,-2.5 -1.7,-2.5c-0.6,-0.1 -1.2,0.7 -1.8,1.1Zm-13.4,-17.6l-3.9,-0c-0.1,0.2 -0.1,0.3 -0.2,0.5c1,0.5 1.9,1 3,1.7c0.4,-0.8 0.7,-1.4 1.1,-2.2Zm26.6,167.5c-1.2,1.2 -1.9,1.7 -2.3,2.4c-0.2,0.3 0.1,0.8 0.2,1.5c0.8,-0.1 1.5,-0.3 2.3,-0.4c0,-1 0,-1.8 -0.2,-3.5Zm-27.8,-158.5c-1.5,0.5 -2.3,0.8 -3.1,1.1l0,0.7c0.8,0.3 1.5,0.7 2.6,1.1c0.2,-1 0.3,-1.6 0.5,-2.9Zm62.5,24c1.4,-1.4 1.4,-1.4 1.2,-2.7c-1,0.4 -1.9,0.7 -3.2,1.2c0.7,0.5 1.3,0.9 2,1.5Zm-90.1,-28.2c-0.1,-0.2 -0.2,-0.4 -0.2,-0.5c-0.9,0.3 -1.8,0.4 -2.6,0.8c-0.3,0.1 -0.3,0.8 -0.5,1.3c0.2,0.1 0.3,0.2 0.5,0.4c0.9,-0.7 1.8,-1.4 2.8,-2Zm52.8,84.4c1.7,-2.3 1.7,-2.3 0,-3.7l0,3.7Zm-1.5,-75.8l0.4,-0l0,-5.2l-0.4,-0l0,5.2Zm8.3,-6l0,2.6c1.4,-0.7 1.4,-1.6 0,-2.6Zm-8.2,18.8c1,-1.2 1,-1.2 -0.2,-2.2c0.1,0.8 0.1,1.5 0.2,2.2Zm7.3,-26.1c0,0.3 0,0.7 -0.1,1c0.9,0.1 1.8,0.1 2.7,0.2c0,-0.2 0,-0.5 0.1,-0.7c-0.9,-0.1 -1.8,-0.3 -2.7,-0.5Zm18.6,23c0,0.8 -0.1,1.5 -0.1,1.5c0.5,0.1 1,0.1 2.3,0.2c-1,-0.8 -1.4,-1.1 -2.2,-1.7Zm-17.8,-9.4c0.2,0.1 0.4,0.1 0.6,0.2c0.1,-0.3 0.2,-0.7 0.3,-1c0,-0 -0.4,-0.1 -0.6,-0.2c-0.1,0.3 -0.2,0.7 -0.3,1Zm-36,-9.2c-0.1,0.1 -0.2,0.3 -0.3,0.4c0.3,0.2 0.6,0.5 0.9,0.7c0.1,-0.1 0.2,-0.2 0.3,-0.4c-0.3,-0.2 -0.6,-0.5 -0.9,-0.7Zm21.6,-4.4c-0.1,-0 -0.3,0.1 -0.4,0.1c0.1,0.3 0.1,0.6 0.2,0.9c0,0.1 0.4,-0 0.6,-0.1c-0.2,-0.3 -0.3,-0.6 -0.4,-0.9Zm7.7,4.5l0.3,-0l0,-0.9l-0.2,-0c0,0.4 -0.1,0.7 -0.1,0.9Zm-33.7,1.4l-0.2,-0l0,0.9l0.2,-0l0,-0.9Zm52.4,-4.2l0.1,-0.2l-0.2,-0l0.1,0.2Zm-16.3,59.2c0.1,-0.1 0.2,-0.2 0.2,-0.2c0,-0.1 -0.1,-0.2 -0.2,-0.3c-0.1,0.1 -0.2,0.2 -0.3,0.4c0.1,-0 0.2,0.1 0.3,0.1Z" style="fill:#212a5e;fill-rule:nonzero;"/><path d="M36.7,2.8c2,2.6 4,5.1 6.3,8c-2.5,1.6 -4.9,3.1 -7.5,4.8c-1.3,-1.4 -2.5,-2.7 -3.8,-4.1c-2.7,-2.8 -2.5,-5.4 0.6,-7.7c0.5,-0.4 1,-0.7 1.4,-1c1.1,-0.5 1.8,-1 3,-0Z" style="fill:#212a5e;fill-rule:nonzero;"/><path d="M10.1,28.6c1.4,-0.9 2.7,-2.1 5.1,-1.2c2.7,2.4 5.8,5.1 8.9,7.9c2.5,1.4 -2.3,7.3 -5.9,3.5c-2.5,-2.6 -5.4,-4.8 -8.1,-7.2c-0.9,-0.8 -1.1,-1.6 -0,-3Z" style="fill:#212a5e;fill-rule:nonzero;"/><path d="M26,36c3.4,-0.5 5.6,-2.6 7.1,-5.8c3.1,0.2 5.7,-0.5 6.7,-3.8l-0.1,0.1c1,-1.1 1.9,-2.3 2.9,-3.4c-1.9,0.3 -3.2,1.6 -4.7,2.5c-2.8,1.7 -4.8,1.1 -6.4,-1.8c-1,-1.9 -0.8,-3.2 0.7,-4.6c0.5,-0.4 1,-0.7 1.5,-1.1c2.6,-1.7 5.1,-3.3 7.8,-5c1.2,-0.8 2.6,-1.4 3.8,-2c2.6,0.5 4.4,1.9 5.8,3.9c1.3,2.1 2.8,4 4.1,6.1c2.3,3.9 2.8,8.1 1.2,12.4c-1.3,3.3 -2.8,6.5 -4.2,9.8c-1,2.5 -2,5 -3,7.5c-0.7,1.7 -0.5,3.3 0.1,5c2,5.7 3.6,11.5 5.6,17.1c1.3,3.6 3,7 4.6,10.4c6,12.8 12.1,25.5 18,38.3c3.1,6.7 6.2,13.4 8.5,20.3c1.5,4.2 3.3,8 5.8,11.7c3.1,4.4 5.4,9.3 8,14.1c1.7,3.1 3.2,6.4 4.8,9.7c2,0.2 3.2,1.6 4.2,3.2c1.4,2.3 3.1,4.5 4.4,6.8c1.6,2.6 3.7,4.6 6.3,6c3.1,1.6 5.9,3.4 8.5,5.8c1.4,1.3 3.2,2.5 5,2.9c3.3,0.8 6.1,1.8 7.2,5c2,0.9 3.2,-0 4.5,-1c-3.5,-6.4 -4.3,-13.4 -5.4,-20.4c-1.2,-1 -2.3,-2.1 -3.2,-2.9l0,-15.5c-0.8,-1.2 -1.9,-3.1 -3.1,-5c-1.3,-2 -1.9,-4.3 -1.5,-6.7c1.1,-7.8 2.6,-15.5 6.4,-22.5c0.8,-1.5 1.7,-3 2.7,-4.4c1.5,-2.1 3.3,-3.5 6.2,-3.4c2.8,0.1 4.9,-1.4 6.3,-3.8c1.2,-2 2.8,-3.4 5,-4c2.5,-0.7 4.9,-0.6 6.9,1.2c0.5,0.5 1.1,1 1.8,1.3c2.8,1.7 5.7,1.3 8,-1.1c3.2,-3.3 6.5,-3.4 9.8,-0.1c0.6,0.6 1.1,1.3 1.5,2.1c1.2,2.2 3,3.2 5.5,2.8c3.1,-0.5 5.3,0.9 7.3,3.3c3.5,4.3 5.7,9.2 7.2,14.4c2,6.7 3,13.9 2.9,19.2c-1.8,2.1 -3.7,4.4 -5.8,6.7c0.8,1.3 1.5,2.5 2.2,3.8c0.3,4.7 -0.7,9.4 -1.9,14c-0.5,1.9 -1.2,3.7 -3.1,4.8c-0.7,0.4 -1.2,1.3 -1.4,2c-0.7,2.2 -1.2,4.5 -1.7,6.8c4.9,2 10.5,2.3 14.2,6.1c1.5,-0.3 2.8,-0.7 4.1,-0.7c2,0.1 3.9,-0 5.7,-1.1c0.6,-0.4 1.4,-0.4 2.1,-0.4c7,0.1 13.8,1.5 20.2,4.3c3,1.3 5.3,3.6 6.7,6.6c1.5,3.1 2.7,6.3 4,9.5c3.3,8.4 7.9,16 12.3,23.9c3.4,6 6.4,12.1 9.5,18.3c1.6,3.2 2.3,6.8 1.8,10.4c-1,7.2 0.8,13.9 3.4,20.5c3.5,9 7,18.1 10.2,27.2c3.2,9.2 4.9,18.8 4.7,28.6c-0.1,4.8 -0.7,9.6 -1.5,14.3c-0.3,1.9 -1.2,3.8 -2.3,5.3c-4.5,6.1 -9,12.3 -13.9,18.1c-10.3,12.3 -20.7,24.4 -31.1,36.5c-0.2,0.2 -0.3,0.4 -0.5,0.8c1.9,11.6 2.8,23.5 2.7,35.8c0.9,0.1 1.9,0.2 3,0.4c6.2,0.8 11.7,3.1 15,8.7c1.3,2.2 2.2,4.7 2.7,7.2c0.6,2.9 0.8,5.9 0.8,8.8c0.1,8.5 0.1,17 -0.1,25.5c-0.1,4.1 -0.4,8.1 -0.6,12.2c-0.1,2.6 -1.6,4.3 -3.5,5.9c0,1.6 0.1,3.2 0,4.8c-0.1,2.1 -1.1,3.2 -2.7,3.3c-1.6,0.1 -2.9,-1.1 -3.2,-2.9c-0.1,-0.8 -0.1,-1.7 -0.1,-2.6c-0.1,-0.8 -0.1,-1.7 -0.2,-2.8c-8.1,-0.3 -16,-0.5 -24,-0.8c-2.6,7.2 -3.7,14 -2.2,21.2c1.1,5.3 3.6,9.9 5.8,14.7c3.5,7.6 5.3,15.5 6.1,23.7c0.7,6.7 0.3,13.3 -0.4,19.9c-0.8,7.7 -2.1,15.3 -3.8,22.8c-2.8,12.8 -6.1,25.5 -9.2,38.3c0.6,0.5 1.3,1 2,1.6c-0.4,3.6 -0.7,7.1 -1.1,10.6c-0.1,1 -0.4,2 -0.1,2.9c0.9,3.2 0,6.3 -0.5,9.5c-0.3,1.7 -0.5,3.4 -0.8,5.2c3.8,4 3.4,9.3 4.7,14.1c0.5,2 1,4 1.8,5.9c2.4,5.6 4.9,11.2 6.4,17.2c1,3.9 0.6,7.3 -2.4,10.1l0,7c-5.7,3.1 -17.8,3.9 -29.3,1.8c-1,-0.8 -0.3,-2.8 -2.5,-3.1c-0.3,0.8 -0.6,1.6 -1,2.8c-1.7,-0.3 -3.5,-0.6 -5.4,-0.9c-1.9,-10 -1.4,-20.1 -3.2,-30c-0.3,0.9 -0.6,1.8 -0.7,2.7c-1.2,6.7 -2.4,13.5 -3.6,20.3c-0.3,1.6 -0.4,3.1 -0.4,4.7c0,11.5 0.1,22.9 0.1,34.4c0,1.2 -0.2,2.4 -0.4,3.6c-0.3,1.5 -1.3,2.4 -2.8,2.6c-1.4,0.3 -2.5,-0.4 -3.2,-1.5c-0.6,-0.9 -1,-1.9 -1.3,-3c-1.8,-6.3 -2.7,-12.7 -3.4,-19.2c-0.7,-7.2 -1.4,-14.4 -2.1,-21.6c-0.2,-2 -0.2,-3.9 -0.9,-5.9c0,1.2 -0.1,2.4 -0.1,3.6c0,8.2 0.2,16.5 0,24.7c-0.2,6 -0.9,12 -1.5,18c-0.2,1.8 -0.9,3.6 -2.3,4.9c-2.2,2.1 -4.9,1.8 -6.5,-0.8c-0.6,-0.9 -0.9,-2 -1.2,-3.1c-3.1,-10 -5.4,-20.1 -6.9,-30.4c-1.2,-7.9 -2.5,-15.8 -3.5,-23.7c-0.8,-6 -1.2,-12 -1.7,-18c-0.5,-5.9 -1,-11.7 -1.5,-17.6c-0.1,-0.7 -0.2,-1.5 -0.6,-2.1c-2.1,-3.7 -4.3,-7.4 -6.7,-11.4c-2.3,-0 -5,0.1 -7.7,-0c-1.5,-0.1 -2.9,-0.3 -4.3,-0.8c-2.3,-0.7 -3.7,-2.3 -4.3,-4.6c-0.9,-3.6 -1.6,-7.2 -1.2,-11.1c-0.5,-0.9 -1,-1.8 -1.6,-2.9c0.2,-1.1 0.5,-2.3 0.8,-3.6l5.6,-0c0.1,-4 0.2,-7.9 3.8,-10.4c0.3,-6.8 0.7,-13.6 1,-20.6c-1,-0.1 -1.7,-0.2 -2.4,-0.2c-4.6,-0 -9.1,0.2 -13.7,0.1c-3.7,-0.1 -7.3,-0.4 -11.3,-0.6c-0.1,-2.4 -0.3,-4.6 -0.4,-6.9c-0.7,-0.6 -1.4,-1.3 -2.2,-1.9c-3.5,-2.7 -5.3,-6.3 -5.7,-10.7c-0.6,-5.6 0.6,-11 1.9,-16.4c1.2,-5.3 1.4,-10.7 1.1,-16.1c-0.1,-2 -1,-4 -1.6,-6c-0.5,-1.5 -1.1,-3 -1.7,-4.6c0.3,-0.8 0.7,-1.5 1,-2.4c-1.8,-2.6 -2.8,-5.3 -2.2,-8.6c0.4,-2 -0.9,-3.8 -2.1,-5.4c-0.7,-1 -1.6,-1.8 -2.5,-2.7c-0.9,-0.9 -1.6,-2 -1.3,-3.3c0.5,-2.1 -0.3,-3.9 -1.2,-5.6c-2.1,-4 -4.3,-8 -6.7,-11.9c-3.4,-5.5 -7.2,-10.9 -10.5,-16.5c-4.6,-7.7 -8.1,-15.9 -9.9,-24.8c-1.4,-6.9 -1.5,-13.6 -0.1,-20.5c0.8,-3.8 0.6,-7.5 -0.4,-11.3c-1.8,-6.8 -2.3,-13.8 -2.4,-20.8c-0.1,-12.9 3.1,-25 9,-36.4c2.5,-5 6,-9.3 9.8,-13.4c7.2,-7.8 15.6,-14.3 24,-20.7c2.5,-1.9 4.9,-3.7 7.7,-5.7c-0.1,-1.3 -0.3,-2.7 -0.4,-4.1c-0.1,-1.7 -0.5,-3.5 -0.1,-5.1c1.1,-4.8 0.7,-9.5 -0.4,-14.2c-2.8,-12.7 -5.8,-25.3 -8.4,-38c-1,-4.8 -1.4,-9.7 -1.7,-14.6c-0.4,-6.7 -0.5,-13.5 -0.8,-20.3c-0.3,-8.5 -3,-16 -8,-22.9c-3.7,-5 -6.7,-10.5 -9.9,-15.9c-4.2,-7.1 -8.2,-14.3 -12.2,-21.4c-1,-1.7 -1.6,-3.6 -2.4,-5.4c-0.4,-1 -0.5,-1.9 0.5,-2.8c-5.1,-6.4 -8.5,-13.7 -11.9,-21c-0.6,-1.3 -1.5,-2.5 -2.3,-3.8c-1.1,-1.9 -2.2,-3.8 -3.2,-5.8c-0.8,-1.5 -1.3,-3.3 -2.4,-4.5c-4.3,-4.9 -6.7,-10.8 -8.8,-16.9c-3.6,-10.2 -5.7,-20.8 -8.1,-31.3c-1.8,-8 -3.9,-15.9 -5.9,-23.9c-2.3,-9.6 -4.6,-19.3 -7,-29c-0.2,-0.7 -0.4,-1.4 -0.7,-2.3c-3.2,-1.9 -4.9,-5.1 -5.9,-8.8c-0.9,-3.1 -1.7,-6.3 -2.8,-10.1c1.2,1.1 1.8,1.9 2.6,2.4c1.5,1.5 6.9,1.3 7.5,-3.9Zm167.4,556.5l0,-4.1c-0.3,1.4 -1.2,2.9 0,4.1c0.2,1.8 0.1,3.6 0.3,5.4c0.8,6.6 1.8,13.1 2.6,19.6c0.9,6.8 1.6,13.6 2.4,20.4c0.9,7.3 1.9,14.5 2.9,21.8c-0.2,-0.4 -0.6,-0.8 -0.7,-1.2c-1,-3.9 -2.1,-7.8 -3.1,-11.7c-1.4,-5.5 -2.6,-11 -4,-16.5c-0.3,1.5 -0.4,3 -0.3,4.4c0.7,8.9 1.4,17.8 2.2,26.7c0.1,0.8 0.2,1.6 0.3,2.4l5.2,-0c0.1,-1.6 0.2,-3 0.3,-4.3c0.7,0.1 1.4,0.2 1.9,0.3c0.4,1.5 0.7,2.7 1.1,4c0.3,-0 0.5,-0.1 0.8,-0.1c-0.1,-1 0,-2.1 -0.2,-3.1c-0.6,-3.6 -1.4,-7.2 -2,-10.8c-1.3,-7.9 -2.6,-15.7 -3.9,-23.6c-1.5,-9.1 -2.7,-18.2 -4.4,-27.2c-0.5,-2.1 -0.1,-4.5 -1.4,-6.5Zm-18.4,66.5c-1.7,4.4 -1.5,10.5 0.8,14l0,-12.2c0.8,-0.3 1.4,-0.5 2.3,-0.9c0.5,1.8 0.9,3.2 1.3,4.9c2,-0.3 3.9,-0.5 5.8,-0.8c0,-2.2 0.1,-4.2 0,-6.1c-0.4,-6.3 -0.8,-12.5 -1.2,-18.7c-0.6,-10.9 -1.2,-21.8 -1.7,-32.8c0,-0.6 -0.1,-1.2 -0.2,-1.7c-0.7,0.8 -1,1.7 -1.1,2.6c-0.1,2.6 -0.1,5.2 -0.3,7.7c-0.6,9.3 -1.3,18.6 -2,27.9c-0.3,3.8 -0.5,7.6 -0.8,11.4c-0.1,1.7 -0.8,3.1 -2.2,4c0.3,-1.1 0.7,-2.1 0.7,-3.2c0.5,-7.1 1,-14.2 1.4,-21.3c0.3,-5.4 0.5,-10.8 0.7,-16.2c0.3,-12 0.6,-24.1 0.8,-36.1l0,-3.3c-0.8,2.1 -1.2,4.1 -1.3,6.2c-0.6,8.2 -1.1,16.4 -1.7,24.6c-0.3,3.9 -0.5,7.8 -0.8,11.8c-0.4,6.9 -0.9,13.7 -1.3,20.6c-0.2,4.4 -0.4,8.8 -0.6,13.3c0,1.1 -0.1,2.2 0.1,3.3c0.1,0.2 0.8,0.6 1.3,1Zm-48.7,-128.6c0.2,0.9 0.5,1.4 0.5,2c0.3,3.2 0.5,6.3 0.9,9.5c0.4,2.7 1.2,5.2 2.9,7.5c1.9,2.5 2.8,5.3 3,8.5c0.1,2.2 0.2,4.5 1.9,6.2c3.1,3.1 4.9,7 6.5,11c1.5,3.8 2.7,7.6 1.8,11.8c-0.5,2.3 -0.9,4.6 -1.3,6.9c-0.6,3.3 -0.5,6.5 2.2,9.3c0.2,-0.6 0.4,-0.9 0.5,-1.2c0.8,-5.8 1.5,-11.7 2.5,-17.5c1.5,-8.6 3.3,-17.1 4.8,-25.6c2.2,-12.3 4.3,-24.6 6.1,-37c1.2,-8 2.1,-16.1 2.7,-24.1c0.4,-6.1 0.2,-12.3 0.3,-18.5c0,-0.8 -0.1,-1.6 -0.2,-2.9c-13.8,0.8 -27.4,-1.2 -41.3,0.2c0.3,0.7 0.5,1.2 0.7,1.6c3.8,7.1 4.1,14.8 3.6,22.6c-0.3,4.7 -0.3,9.3 -0.4,14c0,0.8 0.4,1.6 0.6,2.4c6.6,0.1 13,-0.1 19.1,0.2c2.4,4.4 2.3,9.4 -0.3,13.1l-17.1,0Zm111.7,-142.5c0.8,-0.8 1.4,-1.4 1.9,-2c5.3,-7.8 10.8,-15.5 15.9,-23.5c2.5,-3.9 4.3,-8.2 6.5,-12.4c1.4,-2.8 1.5,-5.5 0.1,-8.5c-2,-4.5 -3.7,-9.1 -5.8,-13.5c-3.7,-8 -7.6,-16 -11.3,-24c-1.4,-3 -2.7,-6 -4.1,-9.1c-3,2.3 -4.4,5 -4.2,8.7c0.2,4.4 0,8.9 0,13.3c0,2 0.4,3.9 0.5,5.8c0.2,3.8 0.5,7.5 -1,11.2c-1.2,3.1 -1.3,6.7 -1.8,10.1c-0.1,0.7 0.3,1.4 0.5,2.1c0.7,2.6 1.1,5.3 0.7,8c-0.8,5 -1.7,9.9 -2.6,15.2c1.6,5.9 3.1,12.1 4.7,18.6Zm-77.9,74.6c0.6,-5 0.2,-9.4 -3,-13.5c-4.5,-1.5 -9.1,-1.9 -13.9,0.5c-6.6,3.3 -13.5,5.6 -20.9,6.4c-1.7,0.2 -3.4,0.6 -4.8,1.5c-2.8,1.6 -5,3.9 -6.7,6.7c-0.3,0.5 -0.5,1.2 -0.8,1.7c3.7,-0.9 7.2,-2.1 10.8,-2.5c5.7,-0.6 11.5,-0.7 17.3,-0.8c6.1,-0.1 12.3,0 18.4,0l3.6,0Zm84.2,53.8c3.7,0.3 7.3,0.3 10.8,-0.1c2.6,-0.3 3.8,-1.7 4.2,-4.3c0.2,-1.5 0.6,-2.9 0.6,-4.4c0.1,-7 0.2,-14 0.2,-21c0,-0.9 0,-1.7 -0.2,-2.6c-0.4,-2.2 -1.2,-4.3 -3.1,-5.7c-1.8,-1.3 -3.8,-2.2 -6.2,-1.7c-2.1,13.3 -4.2,26.4 -6.3,39.8Zm-69.7,256.4c2.2,-8.5 1.1,-51.3 -1.6,-65.5l-3.8,0c-0.2,1.9 -0.6,3.6 -0.6,5.3c-0.3,5.6 -1.6,11.2 -0.9,16.9c0.7,6 1.3,11.9 2.1,17.9c0.9,6.9 2,13.8 3,20.7c0.2,1.6 0.4,3.4 1.8,4.7Zm4.2,-89.1c2.3,17.1 4.5,34.2 6.8,51.2c0.1,0.7 0.5,1.3 0.7,2c0.2,-11.9 1.2,-23.7 -0.4,-35.4c-0.8,-6.4 -3.9,-12.2 -7.1,-17.8Zm17.8,49.9c1.7,-4.7 6.2,-47.5 5.2,-51.2c-1.1,4.8 -2.2,9.6 -3.2,14.4c-0.8,3.7 -1.9,7.4 -2,11.2c-0.4,7.4 -0.2,14.8 -0.2,22.1c0,1 0.1,2.1 0.2,3.5Zm-17.5,-60.4c-0.3,3.7 4.8,19.6 7.2,22.7c-0.4,-7.9 -0.8,-15.6 -1.2,-23.6c-2.3,0.4 -4.2,0.7 -6,0.9Zm22.5,-0.7l-5.1,0l0,27.6c2.3,-9 4,-18.1 5.1,-27.6Zm-62.4,-1c0.3,2.1 0.5,4.2 1,6.2c0.5,2.3 1.7,3 4,2.7c1.4,-0.2 2.8,-0.6 4.1,-1c-0.3,-3.7 -1.5,-5.6 -6.6,-10.6c-0.8,0.8 -1.5,1.6 -2.5,2.7Zm11.6,-55.7c1,0.3 1.7,0.6 2.7,0.9c0.4,-9.9 1.5,-19.4 1,-28.9c-1.2,9.2 -2.4,18.4 -3.7,28Zm88.2,-402.1c-0.8,-0.6 -1.6,-1.1 -2.3,-1.7c-0.7,-0.5 -1.5,-1 -2.2,-1.5c0.6,2.4 1.9,3.7 4.5,3.2Z" style="fill:#212a5e;fill-rule:nonzero;"/><path d="M521.3,245.1c-0.1,0 -1,0.3 -1.3,0c-1.9,-1.8 -4,-1.1 -6.2,-0.8c-3.5,0.5 -7.1,0.7 -10.6,1c-2.4,0.2 -2.4,0.2 -5.2,2.1c-0.1,1.3 -0.2,2.8 -0.2,4.2c-0.2,17.6 -0.5,35.2 -0.7,52.8c-0.1,5.5 -0.1,11.1 -0.1,16.6l0,2.1c-3.1,0.7 -36.9,0.9 -44.4,0.3c-1.9,-5 -1.7,-10 -0.6,-15.1c0.3,-1.4 0.1,-2.9 0.1,-4.4c0.1,-9.8 0.1,-19.7 0.2,-29.5c0,-1.1 0.1,-2.2 0.2,-3.3c0.2,-2.3 1,-4.6 -0.3,-6.8c-0.3,-0.6 -0.1,-1.4 -0.1,-2.2c0,-22.9 -0.2,-45.8 0.1,-68.7c0.1,-9.7 -0.2,-19.4 0,-29c0.1,-9.6 0,-19.2 -0.1,-28.8c0,-1.5 -0.5,-3 -0.9,-5.3c0.8,-2.7 3.7,-3.5 6.7,-3.8c2.1,-0.2 4.4,0.3 6.6,0.4c3.7,0.1 7.4,0.1 11.1,0.2c1.8,0.1 3.6,0.2 6,0.4c0.9,-0.5 2.5,-1.2 4,-2c12.6,0 25.3,-0.1 38,0.1c3.5,0.1 7,0.9 10.5,1.6c5.8,1.1 11.5,2.1 17.1,4.3c7.6,3 13.6,7.5 17.5,14.8c1.5,2.9 3.6,5.6 4.2,8.9c1,5.4 3.4,10.5 2.7,16.2c-0.1,1.1 -0.5,2.3 -0.9,3.3c0.6,7.9 1.8,15.8 0.1,23.8c-1.1,5.2 -3.1,10.1 -7.1,13.9c-1.3,1.3 -2.6,2.6 -3.7,4.1c-2.9,4.2 -7,5.9 -11.9,6.1c-0.4,0 -0.7,0 -1.1,0.1c-0.1,0 -0.2,0.1 -0.5,0.4c-0.4,1.8 0.4,3 2.2,3.9c2.3,1.1 4.5,2.5 6.9,3.5c3,1.3 4.9,3.6 6.5,6.3c0.8,1.3 1.5,2.5 2.5,4.1c0.1,2.1 0.4,4.6 1.3,7.1c0.9,2.7 0.8,5.7 1.2,8.6c1,7.4 0.9,14.9 0.8,22.4c-0.1,8 0.2,16 1.4,23.9c0.5,3.1 1.9,6.1 1.5,9.4c1.9,3.5 2.3,7.7 5,11c-1.1,0.8 -2.5,0.6 -3.8,0.6l-19.6,0c-1.4,0 -2.9,0.4 -4.3,0.7c-5.5,1.1 -10.9,1.2 -16.4,-0.5c-3.2,-1 -5.2,-3 -6.3,-6.2c-1.8,-5.1 -2.5,-10.2 -1.6,-15.6c1,-6.4 2.2,-12.8 3.2,-19.2c0.2,-1.3 0,-2.7 0.1,-4.1c0.2,-2.9 0.4,-5.9 0.7,-8.8c0.3,-2.7 -0.4,-5.1 -1.6,-7.4c-0.6,-1.2 -0.9,-2.5 -1.3,-3.7c-0.7,-2.6 -1.3,-5.2 -2.1,-7.8c-0.3,-1 -1.2,-1.9 -1.9,-2.7c-0.9,-1.3 -2,-2.1 -3.6,-3.5Zm-56.7,-30.3c0.1,0.1 0.2,0.2 0.2,0.2c-0,0.1 -0.1,0 -0.2,-0.2c0.2,-1 -0.2,-1.3 -1.7,-1.2c0.9,0.6 1.3,0.9 1.7,1.2Zm52.5,20c-0.2,-0.1 -0.4,-0.2 -0.6,-0.3c0.2,0.1 0.4,0.2 0.6,0.3c0.1,1.5 0.6,2.7 2.3,3.8c-0.2,-2.1 -0.5,-3.5 -2.3,-3.8Zm9.6,-32.9l0.7,0c0.1,-0.4 0.4,-0.9 0.4,-1.3c-0.4,-2.8 -0.7,-5.6 -1.2,-8.4c-0.9,-5.2 -2.3,-10.2 -5.1,-14.8c-4.5,-7.5 -13.5,-12 -22.2,-10.9c-1.1,9 -1.2,18.1 -0.6,27.1c0.3,4.5 1.5,8.9 3.4,12.7c2.6,1.1 4.9,1.5 7.4,0.5c0.5,-0.2 1.3,0.1 2.8,0.3c-2.1,1.4 -3.4,2.3 -5,3.3c0.7,0.7 1.2,1.4 1.9,2.1c2,-1 3.9,-2 5.7,-3c0.6,-1.3 1.2,-2.3 1.7,-3.4c1.1,0.2 2,0.4 2.6,0.6c1.5,-1.3 2.7,-2.4 4.1,-3.6c-0.1,-0.2 -0.2,-0.9 -0.4,-1.8c1,-0.6 2,-1.1 3.2,-1.8c0.3,1 0.5,1.7 0.6,2.4Zm-2.8,-41.8c-1.1,-1.1 -2.1,-2.2 -3.1,-3.2c-0.9,0.5 -1.5,0.8 -2,1.1c0.4,1.9 0.8,3.5 1.2,5.3c1.8,-0.5 2.6,-1.9 3.9,-3.2Zm35.7,31.6c-0.1,-0.2 -0.2,-0.5 -0.3,-0.7c-1.6,0.4 -3.2,0.7 -5,1.1c1.2,2.4 1.5,5 3.9,7.5c0.2,-2.8 -1.4,-4.5 -0.9,-6.5c0.6,-0.4 1.4,-0.9 2.3,-1.4Zm-36.3,37.5c-1.8,1 -2.2,2.2 -1.7,3.9l3.7,0c0.5,-1 0.9,-2 1.4,-3c-1.3,-0.4 -2.3,-0.6 -3.4,-0.9Zm11.6,3.3c-0.3,-1.1 -0.6,-1.9 -0.9,-2.9c-1.6,0.4 -2.8,0.6 -4.2,0.9c0.3,1.5 0.5,2.8 0.8,4.3c1.6,-0.7 2.7,-1.3 4.3,-2.3Zm-42.9,25.1c0.6,-2.8 1,-5.7 -0.2,-8.5c-0.8,2.8 -0.6,5.6 0.2,8.5Zm-13.2,-96.1c0.8,1.7 1.7,3.1 3.8,3.1c-0.2,-1.6 -0.4,-2.9 -0.6,-4.5c-1.1,0.5 -2,0.9 -3.2,1.4Zm83.1,32.6c-1,2.2 -0.8,3.2 0.8,3.4c0.3,-0.7 0.6,-1.4 1,-2.3c-0.6,-0.4 -1.2,-0.7 -1.8,-1.1Zm-1.6,23c-0.7,-1.3 -1.3,-2.5 -3,-2c-0.1,0.5 -0.2,1 -0.4,1.8c1.3,0.1 2.3,0.2 3.4,0.2Zm8.8,-25.3c-0.6,1.4 -1.8,2.6 0.4,3.9c0.5,-1 0.9,-1.8 1.3,-2.8c-0.6,-0.4 -1.1,-0.7 -1.7,-1.1Zm-108.1,-1.9c0.2,0.1 0.5,0.3 0.7,0.4c0.8,-0.6 2,-1 1.9,-2.6c-0.6,-0.1 -1,-0.3 -1.6,-0.4c-0.4,1 -0.7,1.8 -1,2.6Zm4.8,-24.6c-0.7,1.1 -0.6,2 0.6,2.7c1.5,-0.5 1.2,-1.4 0.9,-2.6c-0.5,-0.1 -1,-0.1 -1.5,-0.1Zm27.1,121.1c0.9,-1 1.4,-1.5 2.4,-2.6c-1.5,-0.1 -2.3,-0.1 -3.4,-0.2c0.4,1 0.6,1.5 1,2.8Zm-15.5,14.4c0.6,-1 0.9,-1.5 1.2,-2c-0.7,-0.4 -1.2,-0.7 -1.7,-1c-0.2,-0.1 -0.4,0 -0.9,0.1c0.3,0.8 0.7,1.6 1.4,2.9Zm-13.3,-39.2c-0.1,1.8 -0.8,3.5 0.2,5.3c0.2,-1.8 0.9,-3.6 -0.2,-5.3Zm17.4,25.2l-0,-2.8c-0,-0.3 -0.2,-0.5 -0.4,-1c-1.5,1.2 -1.1,2.2 0.4,3.8Zm29.6,-47.4c1.6,1.3 1.6,1.3 2.5,1c0.2,-0.1 0.3,-0.5 0.5,-1l-3,0Zm-16.4,25l-0,-3.1c-1.2,1.2 -1.5,2 -0,3.1Zm71.2,-83c1.5,1 1.5,1 2.2,-0.6c-0.9,0.3 -1.6,0.4 -2.2,0.6Zm-0.8,8.5c0.2,0.2 0.5,0.5 0.7,0.7c0.6,-0.5 1.2,-1 1.8,-1.6c0.1,-0.1 -0,-0.5 -0.1,-1.7c-1.3,1.2 -1.9,1.9 -2.4,2.6Zm5.9,-4.2c-0.2,-0.1 -0.4,-0.2 -0.6,-0.2c-0.3,0.6 -0.5,1.2 -0.8,1.8c0.2,0.1 0.5,0.2 0.7,0.3c0.3,-0.7 0.5,-1.3 0.7,-1.9Zm-91,-26.5l-0,-0.9c-0.4,-0.1 -0.8,-0.1 -1.1,-0.2c-0,0.3 -0.1,0.9 -0,0.9c0.3,0.2 0.7,0.2 1.1,0.2Zm-24.8,32.8c0.1,0.2 0.1,0.4 0.2,0.5c0.3,-0.2 0.6,-0.3 0.9,-0.5l-0.1,-0.3c-0.3,0.2 -0.7,0.3 -1,0.3Zm5.2,-27.9l-0,0.4c0.5,0 1,-0.1 1.5,-0.1l-0,-0.3l-1.5,0Zm95.2,66.5c0.3,0.3 0.4,0.5 0.5,0.5c0.2,0 0.4,-0.1 0.6,-0.2c-0.3,-0.1 -0.6,-0.2 -1.1,-0.3Zm-69.8,-5.6l-0,-0.3l-1.1,0l-0,0.3l1.1,0Zm37.5,-14.9c-0.2,-0.1 -0.4,-0.1 -0.6,-0.1l-0,0.1c0.2,0.1 0.4,0 0.6,0Zm38,104c-0.1,-0.2 -0.2,-0.4 -0.2,-0.6c-0.1,0.1 -0.2,0.1 -0.2,0.2l-0,0.6c0.1,-0.1 0.2,-0.1 0.4,-0.2Zm-83.6,-181l-0.2,0l-0,0.9l0.2,0l-0,-0.9Zm-11.7,-1.5c-0.1,-0.2 -0.1,-0.4 -0.2,-0.6c-0.1,0.1 -0.2,0.1 -0.2,0.2l-0,0.6c0.1,-0.1 0.2,-0.2 0.4,-0.2Zm63.6,111.9c-0.1,-0.1 -0.3,-0.3 -0.4,-0.4c-0.1,0.2 -0.2,0.4 -0.2,0.6c0,0.1 0.1,0.2 0.2,0.3c0.1,-0.2 0.3,-0.3 0.4,-0.5Zm-62.5,1.2c0,0.1 0.1,0.3 0.1,0.4c0.3,-0.1 0.6,-0.1 0.9,-0.2c0,-0.1 -0.1,-0.3 -0.1,-0.4c-0.3,0.1 -0.6,0.1 -0.9,0.2Zm64.6,12.5l-0.3,0l0,0.9l0.3,0l0,-0.9Z" style="fill:#212a5e;fill-rule:nonzero;"/><path d="M820.7,321.7c0.6,-1 1.4,-2.2 2.3,-3.6c-0.7,-3.3 -1.6,-6.8 -2.3,-10.3c-0.5,-2.8 -1.1,-5.6 -1.3,-8.4c-0.3,-5.8 -1.7,-11.4 -2.7,-17.1c-0.3,-1.4 -0.5,-2.9 -0.9,-4.6c-4.8,0 -9.6,-0.2 -14.4,0c-4.8,0.2 -9.5,0.7 -14.7,1c-0.5,2.5 -1.2,5.4 -1.4,8.3c-0.2,2.5 -0.9,4.9 -0.4,7.6c0.6,2.9 -0.4,6.1 -0.9,9.1c-0.3,2.3 -0.9,4.6 -1.3,6.8c-0.1,0.5 0,1.2 0.2,1.7c0.7,3.3 -1.6,6.6 -5.1,7.4c-2.2,0.5 -4.6,0 -6.9,-0.1c-1.1,0 -2.2,-0.6 -3.2,-0.4c-5,1 -10,0.6 -15.1,0.8c-0.6,0 -1.2,-0.1 -1.8,0c-6.5,0.5 -12.7,-0.5 -18.6,-3.3c-0.3,-0.1 -0.7,-0.1 -1.4,-0.2c0,0.7 0.1,1.2 0.1,1.8c-0.6,0.2 -1.3,0.5 -2,0.7c-0.2,-0.4 -0.6,-0.7 -0.6,-1c-0.2,-4.3 -0.5,-8.6 1.8,-12.6c0.3,-0.6 0.2,-1.4 0.4,-2.1c0.5,-1.6 0.7,-3.5 1.6,-4.8c1.7,-2.5 1.9,-5.2 2.2,-8c0.5,-4.4 1.3,-8.7 2.2,-13c1.4,-7 2.9,-13.9 4.2,-20.9c0.3,-1.8 1,-3 2.8,-3.3c0.3,-3.8 0.7,-7.4 1,-11.5c0.8,0.9 1.3,1.5 1.9,2.3c0.9,-3.9 1.3,-7.7 1.1,-11.5c0.7,-1 1.5,-2 2.4,-3.3c-0.3,-1.6 -0.8,-3.5 -0.8,-5.4c0,-2.1 0.3,-4.1 0.7,-6.2c1.4,-7 2.2,-14 2.9,-21.1c0.4,-4.6 1.7,-9.1 2.6,-13.7c0.5,-2.6 1.6,-4.6 4.5,-5.5c1,-15.6 4.3,-30.8 9,-46.5c1.1,-2 4.7,-1 6.6,-3.3c1.2,0.8 2.1,1.6 3.2,2.3c0.8,-0.6 1.6,-1.2 2.4,-1.7c2,-1.4 4.1,-2 6.6,-2c11.6,0 23.1,-0.1 34.7,-0.2c2.1,0 4.2,-0.3 6.2,-0.5c2.2,-0.2 4.1,0.1 6,1.5c0.1,1.5 0.1,3.2 0.5,4.7c0.4,1.4 1.2,2.6 1.8,3.9c-1.7,2.2 -1.7,2.3 -0.3,4.4c1.7,2.7 2.2,5.7 2.5,8.7c0.1,1.6 0.4,3.1 1.1,4.6c0.3,0.6 0.5,1.1 0.6,1.7c0.5,5.7 3.3,10.7 4.3,16.7c-0.3,0.2 -0.8,0.5 -1.4,0.9c0.2,0.7 0.3,1.5 0.7,2c2.9,3.6 3.1,7.9 3.6,12.2c0.2,2 0.8,4 1.3,6c2.5,9.6 4.2,19.4 5.6,29.2l0,0.4c1.1,2.6 1.1,5.3 1.5,8c0.4,2.8 0.9,5.6 1.4,8.3c0.1,0.5 0.2,1 0.4,1.4c3.2,5.4 3.9,11.6 5.3,17.5c1.2,4.6 1.6,9.4 2.4,14.1c0.5,2.5 1.1,5 1.8,7.5c2.2,7.3 3.7,14.7 4.4,22.3c0.2,1.6 -0.6,3.3 -1,5.5c0.6,1.1 1.5,2.7 2.4,4.3c1.5,2.5 1.4,5.3 1,7.9c-0.4,2.1 -2.2,3.2 -4.3,3.6c-4.5,0.8 -8.9,1.6 -13.4,2.2c-6.8,1 -13.7,1.1 -20.6,0.8c-4.1,-0.2 -8.3,-1 -12.4,-1.4c-1.3,-0.2 -2.4,-0.8 -3,-2.6Zm21.5,-32.9c-1.2,0.9 -2.4,1.8 -3.7,2.8c0.5,2.3 2.6,1.5 4.1,2.3c0.7,-2 -0,-3.6 -0.4,-5.1c1.8,-0.8 2,-2.4 2.1,-4.4c-1.1,0.1 -1.9,0.1 -2.9,0.2c0.4,1.7 0.6,2.9 0.8,4.2Zm-31.5,-56.4c-1.5,-1 -1.6,-2.2 -1.6,-3.4c-0.1,-1.4 -0.1,-2.7 -0.2,-4.1c-0.9,-7.7 -1.9,-15.3 -2.7,-23c-0.9,-7.9 -1.6,-15.9 -2.4,-23.8c-0.2,-2.1 -0.4,-4.1 -0.7,-6.2c-0.2,-1.3 -0.3,-2.7 -2.3,-2.9c-0.2,1 -0.4,1.8 -0.5,2.6c-0.6,5.5 -1.1,11 -1.7,16.5c-0.9,7.7 -1.8,15.3 -2.7,23c-0.7,6.3 -1.5,12.7 -2.1,19c-0.2,2 -0.5,4.1 0.1,6.3l18.8,0c0.8,-3.5 0.8,-3.5 -0.9,-5.1c-0.5,0.3 -0.8,0.6 -1.1,1.1Zm16.4,-42.1c2.1,-0.8 4.1,-1.5 6.4,-2.4c-0.3,-0.9 -0.5,-1.7 -0.8,-2.8c-2.2,1.8 -4.8,2.3 -5.6,5.2Zm-90.3,99.1c1.5,-1.1 3.2,-2 2.5,-3.9c-0.4,-1 -1.3,-1.4 -2.5,-0.8l-0,4.7Zm87.5,-98.8c-1.8,0 -3.1,0.4 -4,1.5c-0.2,0.2 -0.1,0.6 -0.2,1.1c1.1,0.2 2.1,0.4 3.2,0.7c0.3,-1.2 0.6,-2.1 1,-3.3Zm-1.4,54.4c-0.5,2.9 -0.5,2.9 1,4.5c0.8,-2.4 0.8,-2.4 -1,-4.5Zm-29.4,-37.6c-1.9,0.7 -3.1,1.1 -3.9,2.4c2.2,0.8 2.2,0.8 3.9,-2.4Zm-21.6,-31.9c0.8,-1.4 1.2,-2.5 -0.7,-4.2c0.2,1.8 -1.3,2.8 0.7,4.2Zm89.6,92.8c-1.6,-0.4 -3,-0.7 -4.4,1c1.7,0.2 3.1,0.7 4.4,-1Zm-38.9,-118c1.2,1.1 1.9,1.8 3.3,1.5c-0.4,-1.6 -1.2,-2.1 -3.3,-1.5Zm-32.2,92.9c-0,-0.3 0.1,-0.5 0.1,-0.8c-0.6,-0.3 -1.2,-0.6 -2.3,-1.2c0.2,1.2 0.3,1.8 0.4,2.7c0.7,-0.3 1.3,-0.5 1.8,-0.7Zm-50.4,66.2c-0.5,1.9 -0.5,1.9 0.2,3.7c1.1,-1.4 0.8,-2.4 -0.2,-3.7Zm101,-40c1.5,-1.1 1.5,-2.1 0.8,-3.4c-1.5,0.9 -1.1,2 -0.8,3.4Zm-53.8,-68.4c-1,1.5 -1,1.5 0.3,2.4c-0.1,-0.9 -0.2,-1.7 -0.3,-2.4Zm-2.9,-22.4c-1.2,1.8 -1.2,1.8 0.7,2.8c-0.3,-1.1 -0.5,-1.9 -0.7,-2.8Zm61.7,79.7c1.7,-0.9 1.5,-1.5 -0.1,-2.2c-0,0.9 0.1,1.6 0.1,2.2Zm-25.8,-73.8c-0.2,1.9 0.3,2.5 2.2,1.9c-0.8,-0.6 -1.4,-1.1 -2.2,-1.9Zm-5.4,11.5c1.4,-0.7 2.1,-1.1 3.4,-1.8c-2,-0.5 -2.6,0.1 -3.4,1.8Zm37.1,88.9c0.2,-0.1 0.4,-0.1 0.5,-0.2c-0.2,-0.6 -0.4,-1.2 -0.6,-1.8c-0.2,0.1 -0.5,0.2 -0.7,0.2c0.4,0.6 0.6,1.2 0.8,1.8Zm-9.7,-2.6c0.3,-0.2 0.6,-0.4 0.8,-0.6c-0.4,-0.5 -0.8,-1 -1.1,-1.5c-0.2,0.1 -0.3,0.2 -0.5,0.3c0.2,0.6 0.5,1.2 0.8,1.8Zm-46.4,-24.8c-0.3,0.9 -0.4,1.5 -0.8,2.8c1.1,-0.8 1.6,-1.2 2.1,-1.6c-0.4,-0.3 -0.6,-0.6 -1.3,-1.2Zm-60.6,56.6c0.2,0 0.4,-0.1 0.7,-0.1c-0.1,-0.9 -0.1,-1.8 -0.2,-2.6l-0.5,0l-0,2.7Zm89.4,-72.6c-0.4,-0.3 -0.6,-0.6 -0.8,-0.6c-0.2,0 -0.4,0.4 -0.5,0.6c-0,0.1 0.3,0.4 0.4,0.4c0.2,0 0.4,-0.2 0.9,-0.4Zm-36.2,20.8c-0.3,-0.3 -0.5,-0.7 -0.7,-0.7c-0.3,0 -0.6,0.3 -0.7,0.5c-0.1,0.2 0.3,0.7 0.5,0.7c0.2,0 0.5,-0.3 0.9,-0.5Zm58,17.6c-0.3,0 -0.6,0 -0.8,0.1c0.1,0.4 0.1,0.7 0.2,1.1c-0,0.1 0.6,0 0.6,0l-0,-1.2Zm-43,-142.8l-0,-0.3c-0.4,0 -0.9,0.1 -1.3,0.1l-0,0.3c0.5,-0.1 0.9,-0.1 1.3,-0.1Zm-13.8,67.7c0.2,0.2 0.4,0.4 0.6,0.5c0.2,-0.5 0.5,-0.9 0.7,-1.4c-0.2,-0.1 -0.4,-0.2 -0.5,-0.3c-0.3,0.4 -0.5,0.8 -0.8,1.2Zm8.8,67.6l-0,-0.4l-1.9,0l-0,0.4l1.9,0Zm46.4,2.5l-0,-0.6c-0.1,0.2 -0.1,0.4 -0.1,0.6l0.1,0Zm20.1,22.4l-0,-0.3c-0.3,0.1 -0.5,0.1 -0.8,0.2c-0,0.1 0.1,0.2 0.1,0.2c0.2,0 0.4,-0.1 0.7,-0.1Zm-113.7,-63.9c-0.3,0.2 -0.4,0.4 -0.6,0.5c0.2,0.2 0.3,0.3 0.5,0.5c-0,-0.3 -0,-0.6 0.1,-1Zm48.4,24.6l0.2,0.2l-0,-0.2l-0.2,0Zm47.2,55.5l0.2,0.1l-0,-0.2l-0.2,0.1Z" style="fill:#212a5e;fill-rule:nonzero;"/><path d="M989,354.4c0.6,0.9 1.3,1.4 1.4,2.1c0.9,4.3 2.2,8.6 1.5,13.1c-0.1,1 -0.3,1.9 -0.4,2.9c-0.3,5.9 -0.6,11.8 -0.9,17.7c-0.1,1.4 -0.5,2.8 -0.9,4.4c-1.5,0.2 -2.7,0.5 -3.8,0.5c-4.8,0.1 -9.6,0.1 -14.4,0.3c-3.4,0.2 -6.9,0.1 -10.2,1.2c-1,0.3 -2.2,0.2 -3.3,-0c-7.8,-1.4 -15.6,-1.4 -23.1,-1.4c-1.6,1.4 -2.1,3 -1.7,4.3c0.5,2 -0.2,3.9 -0.4,5.8c-0.2,1.3 -0.2,2.6 0.1,3.9c0.4,1.5 0.3,3.2 -0.1,4.7c-0.8,3.1 -0.6,6 0.2,9c0.6,2.1 0.7,4.3 1.1,6.8c1.9,0.5 4.1,0.1 6.3,-0c4.2,-0.3 8.3,-0.8 12.5,-1c2.2,-0.1 4.4,0.5 6.6,0.5c3.4,-0 6.9,-0.4 10.3,-0.5c2.6,-0 5.1,0.3 7.7,0.4c1,0.1 2,-0 2.9,0.2c1.2,0.2 2.3,0.5 3.6,0.8c-0.1,12.8 1.5,25.3 -0.1,38.2c-7.1,4.2 -14.6,3.8 -22.1,-0.2c-0.5,0.7 -0.8,1.2 -1.2,1.9c-0.7,-0 -1.5,0.1 -2.3,0.1l-19.2,-0c-1.9,-0 -3.8,0.4 -5.9,0.7l0,13.9c-1.5,1.1 -4.4,0.8 -3.6,4c1.2,0.2 2.5,0.4 4,0.7c0.2,7.5 0.6,14.9 -1.1,22.4c2.3,0.6 4.5,-0 6.6,-0c6,-0.1 12.1,-0.8 18,-0.3c3.7,0.3 7.3,0.2 10.9,-0c4.5,-0.2 9.1,-0 13.6,-0c1.6,-0 3.2,-0.2 5.1,-0.4c1,0.4 2.3,0.8 3.7,1.3c0.5,14.7 1.1,29.4 1.6,44.1c-2.9,0.8 -85.1,1.2 -105.2,0.5c-1.3,-1.9 -1.2,-4.1 -1.2,-6.3l0,-106.7c-1,-0.6 -1.9,-1.2 -3.1,-1.9c1.3,-1.6 2.4,-2.9 3.6,-4.3c-1.4,-4.4 -2.9,-8.8 -4.4,-13.5c1.2,-1 2.4,-2 3.9,-3.2c0.1,-0.4 0.2,-1.2 0.4,-2.1c1.2,-0.1 2.2,-0.2 3.2,-0.2c0.2,-2.7 -2.1,-3.6 -3.6,-5.7c0.2,-2.1 0.4,-4.7 0.6,-7.2c0.1,-0.6 0.3,-1.3 0.1,-1.8c-1.3,-6.1 -0.5,-12.3 -0.6,-18.4c-0.1,-3.1 -0.6,-6.1 -1.1,-9.1c-0.7,-3.7 -1.6,-7.5 -0.4,-11.3l0,-0.4c1.6,-3.1 1.6,-6.6 1.5,-10.2c1,-0.1 1.8,-0.3 2.6,-0.2c4.3,0.3 8.6,-0.5 12.8,0.7c0.8,0.2 1.9,-0.3 2.8,-0.4c2.2,-0.3 4.3,-0.9 6.5,-0.9c23.9,-0 47.8,0.1 71.7,0.2c2.3,-0.1 4.5,0.1 6.9,0.3Zm-86.5,3.1c-1.4,-0 -2.2,0.4 -1.9,2c0.8,0.1 1.6,0.2 2.6,0.2c-0.2,-0.9 -0.4,-1.5 -0.7,-2.2Z" style="fill:#00acd8;fill-rule:nonzero;"/><path d="M313.4,252.7c0.6,-1.3 1.3,-2.7 2.1,-4.3c-1.7,-2.1 -2.7,-4.4 -2.6,-7.3c0.1,-2.6 0.4,-4.6 3.9,-5.5c-1.4,-0.9 -2.3,-1.5 -2.7,-1.7c-1.2,-9.1 1.5,-17.4 -0.2,-26.3c0.5,-0.6 1.5,-1.7 2.7,-3.2l-0,-2.4c-0.8,0.4 -1.4,0.8 -2.3,1.3c-0.4,-0.7 -1.1,-1.4 -1,-2c0.1,-2.1 0.6,-4.1 0.8,-6.2c0.2,-1.4 0.3,-2.9 0.2,-4.3c-0.1,-2.3 -0.4,-4.6 -0.7,-7c0.6,-0.3 1,-0.5 1.6,-0.7c0.3,-1.7 0.5,-3.5 0.8,-5.3c-0.7,-0.3 -1.2,-0.5 -1.9,-0.8c0.2,-0.7 0.5,-1.3 0.7,-2c0.6,0.2 1.1,0.3 1.6,0.5c0.1,-0.2 0.4,-0.4 0.3,-0.6c-1.3,-3.4 -0.9,-6.9 -0.3,-10.2c2.2,-12.6 8.4,-22.9 18.1,-31.2c2.1,-1.8 4.7,-3.2 7.3,-4.2c5,-2 10,-3.9 15.3,-4.9c0.6,-0.1 1.2,-0.3 1.8,-0.3c8,-0.3 16,-0.6 23.7,-0.9c1.3,0.9 2.3,1.6 3.4,2.3c1.1,-0.3 2.1,-0.6 3.2,-0.9c-0.1,-0.6 -0.2,-1.2 -0.4,-1.7l31.6,-0c1,3.3 1,28.9 0.1,31.9c0.6,0.7 1.1,1.3 1.8,2c-0.5,1 -0.9,2 -1.3,2.9c-2.4,0.8 -2.4,0.8 -3.5,2.5c-5.9,1.5 -12,1.1 -18.2,0.7c-2.7,-0.2 -5.3,-0.9 -8,-1.2c-1.5,-0.2 -2.9,-0.1 -4.4,-0c-2.3,0.2 -4.6,0.5 -6.9,0.7c-0.9,0.1 -1.7,-0 -2.6,0.1c-3.8,0.2 -6.5,2 -8,5.5c-1.9,4.2 -4.3,8.3 -4.9,13c-0.3,2.9 -0.4,5.9 -0.5,8.8c-0.4,0.4 -0.9,0.8 -1.4,1.3c0.1,1.4 -0.1,2.9 0.4,4.3c0.7,2.2 0.4,4.3 0.2,6.5c-0.2,1.9 -0.4,3.9 -0.3,5.8c0.1,2.7 0.5,5.4 0.7,8c0.2,2.7 0.5,5.4 0.6,8.1c0.1,2.4 -0,4.9 -0.1,7.4c-0.1,2.1 -0.5,4.1 -0.7,6.4c-0.9,0.1 -1.8,0.3 -2.8,0.4c-1.6,1.6 -2.5,3.5 -2,6c0.7,0.4 1.4,0.8 2.2,1.2c0.6,-0.8 1,-1.5 1.5,-2.3c0.4,0.3 0.8,0.4 0.9,0.7c0.4,1.4 1,2.8 1.1,4.2c0.5,5.1 -0.1,10.3 -0,15.4c-0,3.3 0.6,6.5 1.7,9.7c1.5,4.3 4.5,7.5 7.9,10.8c3.4,-0.2 6.9,-0.5 10.7,-0.8c7.3,-8.7 11,-18.5 9.1,-30.3l-5.3,0c-1.3,-2.6 -2.6,-4.7 -3.6,-7c-1.4,-3.4 -1.5,-6.9 -1,-10.5c0.1,-0.7 0.2,-1.5 0.5,-2.1c0.7,-1.3 -1.5,-2.8 0.3,-4.1c-0.2,-1.4 -0.6,-2.8 -0.7,-4.2c-0.2,-4.4 -0.4,-8.8 -0.6,-13.6c15.7,0.2 30.9,0 46.4,0.8l-0,3.2c-0.1,2.8 -0.3,5.6 -0.4,8.5c-0,0.7 0.1,1.5 0.4,2.1c1.6,3.7 1.1,7.4 0.1,11.2c-0.8,3.1 -1.7,6.1 -2.5,9.3c0.6,0.2 1.1,0.5 2,0.9c0.2,1.7 0.6,3.6 0.6,5.6c-0,5.9 -0.3,11.8 -0.4,17.7c-0,1.2 0.2,2.3 0.7,3.5c0.6,1.7 0.5,3.8 0.4,5.7c-0.3,6.4 -0.5,12.8 -1.4,19.1c-0.5,3.9 0.1,7.4 0.6,11.2c0.4,3 -0.2,6.1 -0.3,9c-1,1.7 -2.7,1.7 -4.2,2c-0.5,1 -0.9,1.9 -1.6,3.1c-0.7,-0.8 -1.1,-1.4 -1.6,-1.9c-3.9,1.2 -7.9,1.7 -12,1.5c-5.2,-0.2 -10.3,-0.5 -15.5,-0.6c-7.7,-0.1 -15.4,-0.7 -23.1,0.3c-3.4,0.4 -6.7,0.5 -10,-1.5c-2,-1.2 -4.7,-1.2 -7.1,-1.8c-10.9,-2.6 -20,-7.8 -27,-16.7c-4.3,-5.5 -7.3,-11.5 -9.2,-18.2c-0.8,-2.8 -2.4,-5.4 -3.7,-8.1c1.2,-2.3 0.7,-4.6 0.3,-7.1c-0.6,-3.9 -0.7,-7.8 -1,-11.7c-0.1,-1.8 -0.2,-3.4 -0.4,-5.5Zm113.7,-28.9c-0.4,-2.2 -0.7,-4.4 -1.1,-6.6c-1.9,0.3 -2.6,1.2 -2.7,2.8c-0.1,1.1 -0.2,2.2 -0.4,3.3c-0.1,0.3 -0.3,0.6 -0.6,1c-0.9,-0.2 -1.8,-0.3 -3,-0.5c-0.1,1 -0.2,1.8 -0.3,2.7c2.7,-0.8 5.1,-1.7 8.1,-2.7Zm-89.6,84.8c1.9,-3.5 1.4,-7.1 1.1,-11.1c-1.1,0.6 -1.8,0.9 -2.4,1.2c-0.6,6.5 -0.5,7.1 1.3,9.9Zm15.6,-129.1c1.3,-1.6 2.8,-2.9 1.7,-5.5c-1,-0.2 -2.3,-0.5 -3.4,-0.8c-1,1.1 -1.7,1.9 -2.3,2.6c1.3,1.3 2.5,2.4 4,3.7Zm-22.9,74.8c2.7,1 4.8,1.7 7.5,2.7c-1,-2.9 -3.1,-3.5 -4.7,-4.7c-0.9,0.6 -1.5,1.1 -2.8,2Zm-8.8,-5.8c-1.4,-0.3 -2.4,-0.8 -3.1,0.6c1.9,1.5 1.9,1.5 3.1,-0.6Zm22.1,1.9c1.7,-1.8 1.7,-1.8 -0.1,-3c-1,0.9 -1.1,1.8 0.1,3Zm-22.9,10c-0.6,-1.9 -1.3,-2.7 -2.2,-2.1c0.1,0.7 0.2,1.4 0.3,2.3c0.7,0 1.3,-0.1 1.9,-0.2Zm16.3,29.1c0.2,-0.2 0.5,-0.3 0.7,-0.5c-0.5,-0.8 -1,-1.6 -1.7,-2.7c-1,2 -0.2,2.7 1,3.2Zm20,26.4c0.6,-1 1,-1.6 1.3,-2.1c-1.2,-0.8 -2,-0.7 -2.5,0.6c0.3,0.3 0.6,0.7 1.2,1.5Zm-25.9,-43.6c-1.4,-0.6 -2.3,-1 -3.2,0.2c1.1,1 2,1 3.2,-0.2Zm-13.5,-76.8c-1.5,1.3 -1.5,1.3 -0.4,2.5c0.2,-1 0.3,-1.7 0.4,-2.5Zm14,104.4c-0.2,0.2 -0.4,0.5 -0.6,0.7c0.6,0.4 1.1,0.8 1.7,1.2c0.1,-0.2 0.3,-0.3 0.4,-0.5c-0.5,-0.5 -1,-0.9 -1.5,-1.4Zm68.6,-85.6c1.1,1.2 1.1,1.2 2.7,0.3c-1.1,-0.2 -1.7,-0.2 -2.7,-0.3Zm-82.5,-20.4c0.2,-0.1 0.4,-0.3 0.6,-0.4c-0.4,-0.8 -0.8,-1.6 -1.3,-2.4c-0.2,0.1 -0.4,0.2 -0.6,0.3c0.5,0.8 0.9,1.7 1.3,2.5Zm76,101.5c-1.5,1.3 -1.5,1.3 -0.1,2.3c-0,-0.8 -0,-1.4 0.1,-2.3Zm-52.4,-43.3c0.1,0.1 0.2,0.3 0.3,0.4c0.3,-0.2 0.7,-0.5 1,-0.7c-0.1,-0.1 -0.2,-0.3 -0.3,-0.4c-0.3,0.2 -0.6,0.4 -1,0.7Zm-7.9,22.8l-0,0.2l0.8,0l-0,-0.2c-0.2,0.1 -0.5,0.1 -0.8,0Zm84.2,-1.5l-0,0.3l0.9,0l-0,-0.2c-0.3,-0.1 -0.6,-0.1 -0.9,-0.1Zm-10.3,31.9c-0.4,0.1 -0.2,0 -0,0c-0.2,0 -0.4,0 -0,0Zm-34.7,-156.1l-1.5,0c-0,0.2 0.1,0.4 0.1,0.5c0.3,0 0.5,-0.1 1.4,-0.5Zm43.8,70.6c0.1,-0.1 0.1,-0.1 0.2,-0.2c-0.1,-0.1 -0.1,-0.2 -0.2,-0.2c-0.1,0 -0.1,0.1 -0.2,0.2c-0,0.1 0.1,0.2 0.2,0.2Z" style="fill:#212a5e;fill-rule:nonzero;"/><path d="M649.7,279.6c4.8,-0.3 9.3,-0.6 13.8,-0.9c3.3,-0.2 6.6,-0.2 9.9,-0.2c1.9,0 3.5,0.9 4.6,3c0.6,-0.8 1,-1.4 1.7,-2.4c2,0 4.2,-0.1 6.4,-0.2l11.4,0c0.5,0 1.1,0.1 1.5,0c2.5,-1.2 4.7,-0.1 7,0.5c0.6,14.5 1.1,29 1.7,43.7l-102.9,0c-0.9,-1.5 -0.6,-3.2 -0.6,-4.9c-0.1,-5.7 0,-11.3 0,-17c0,-4.4 -0.1,-8.9 0,-13.3c0.1,-9.6 -0.6,-19.2 -1.2,-28.7c-0.2,-3.9 -0.2,-7.9 -0.2,-11.8c0,-16.9 0.1,-33.7 -0.1,-50.6c-0.1,-8.2 -0.8,-16.4 -1.2,-24.7c-0.1,-2 -0.2,-3.9 -0.1,-5.9c0.1,-6.9 -0.9,-13.7 -1.3,-20.6c-0.3,-5.9 -0.1,-11.8 -0.1,-17.9c1.5,-2.3 4.2,-2.8 6.7,-2.8c5.8,0 11.5,0.4 17.3,0.5c8.1,0.1 16.3,-0.2 24.4,-0.1c17.2,0 34.5,0.1 51.7,0.2l2.2,0c2.2,0.2 3.5,1 3.9,3.2c0.9,4.4 2.2,8.9 1,13.5c-0.2,0.7 -0.1,1.5 -0.2,2.2c-0.3,5.6 -0.5,11.3 -0.9,16.9c-0.1,1.3 -0.7,2.5 -1,3.7c-8.8,1.2 -17.3,0.8 -25.9,1.1c-0.2,-1.3 -0.4,-2.4 -0.5,-3.7c-1.9,0.3 -0.8,2.2 -2.5,3.3c-0.5,0.1 -1.8,0.4 -3.1,0.4c-4.9,-0.2 -9.8,0.2 -14.7,-0.6c-2.2,-0.4 -4.6,0.2 -6.6,0.3c-2.6,2 -1.3,4.3 -1,6.9c-0.9,1 -1.9,2.3 -3.1,3.4c-1.2,1 -1.5,2.1 -1.1,3.8c1.2,-0.4 2.1,-0.7 3.4,-1.1c0.5,2.4 0.7,4.8 -0.7,7l-3.9,0c-1.4,1.5 -4,1.5 -5,4.1c2.7,0.7 4.9,-0.8 7.4,-0.8c2.6,1.5 3,4.4 3.5,7l45.2,0c2.4,0.2 4,1.6 3.9,4c-0.2,6.6 1,13.2 0.3,19.9c-0.6,5.4 -0.1,10.8 -0.1,16.1c-3.5,2.8 -7.3,3.4 -11.3,3.5c-4,0.2 -7.5,-1.5 -11,-3.1c-0.6,0.9 -0.9,1.5 -1.3,2.1c-8.7,0.2 -17.3,0.4 -25.9,0.7c-0.2,0 -0.4,0.3 -0.7,0.5l-0,12.5c-0.9,1.8 -4,1 -3.7,4.1c1.1,0.3 2.4,0.5 3.6,0.8c0.8,3.7 0.6,14.5 -0.6,22.4Zm-27,-77.6c-1.7,-5.3 -0.4,-10.9 -2.8,-16.2c-0.7,0.5 -1.5,0.8 -1.5,1.2c-0.3,2.9 -0.7,5.9 -0.5,8.8c0.2,3.8 0.8,7.5 1.3,11.3c0.2,1.6 0.4,3.1 0.7,4.9c1.1,-0.1 1.9,-0.2 3.2,-0.3c-2,-3.6 -2.9,-6.8 -0.4,-9.7Zm-2.4,22.7c-0.9,1.3 -1.4,2.1 -1.9,2.8c1,3.7 0.3,7.6 2.3,10.9c0.5,-3.6 0.8,-7.3 0.9,-10.9c0,-0.7 -0.7,-1.5 -1.3,-2.8Zm-6.4,-1.6c1.6,-0.3 2.8,-0.5 3.9,-0.9c2.2,-0.6 3.6,-2.9 3.2,-5.3c0,-0.2 -0.5,-0.4 -0.9,-0.6c-0.4,1 -0.7,1.9 -1,2.7c-1.8,0.6 -3.5,1.2 -5.2,1.7l0,2.4Zm82.4,-83.8l0.8,-0c0.3,-2.1 0.6,-4.2 0.8,-6.3c0.1,-0.9 -0.6,-1.5 -2,-1.2c0.2,2.5 -0.5,5 0.4,7.5Zm-60.9,54.4c2.3,0.1 3.7,-0.8 3.3,-2.2c-0.7,-0.1 -1.5,-0.1 -2.4,-0.2c-0.3,0.9 -0.6,1.6 -0.9,2.4Zm-19,66.5c-1.1,2.3 -1.1,2.3 0.6,4.2c0.7,-1.6 1,-3 -0.6,-4.2Zm51.3,-57.2c-1.3,0.7 -2.6,1.1 -2,2.7c2.6,-0.1 2.6,-0.1 2,-2.7Zm35.6,80.3c-1.5,1.9 -1.5,1.9 -0.2,4.5c0,-1.8 0.1,-2.9 0.2,-4.5Zm-87.8,-28.3c0.2,0.1 0.4,0.1 0.7,0.2c0.2,-0.8 0.6,-1.7 0.7,-2.5c0,-0.3 -0.6,-0.6 -1.3,-1.3c-0.1,1.6 -0.1,2.6 -0.1,3.6Zm17.3,-23.6c-1.2,2 -1.2,2 0,3.3l0,-3.3Zm65.1,-88.7c-1.4,-0 -1.9,0.5 -1.8,1.7l1.9,-0c0,-0.6 0,-1.1 -0.1,-1.7Zm-35.7,142.8c-2.3,-0.3 -2.5,0.6 -2.4,1.8c0,0.2 0.2,0.3 0.5,0.6c0.5,-0.6 1,-1.2 1.9,-2.4Zm-48.2,-52.8l0,2.7c1.4,-1.4 1.4,-1.4 0,-2.7Zm23.4,36.5c1.6,-0.8 2.2,-1.7 0.3,-3c-0.1,1.2 -0.2,2.1 -0.3,3Zm12.6,-58.4c0.2,-0 0.5,0.1 0.7,0.1l0,-3.7l-0.6,-0c0,1.1 -0.1,2.4 -0.1,3.6Zm-14.4,-21.9c0.5,-0.4 0.8,-0.7 1.3,-1.1c-0.8,-0.4 -1.3,-0.7 -2.5,-1.2c0.7,1.1 0.9,1.6 1.2,2.3Zm-9.1,124.5c0.3,0.1 0.5,0.3 0.8,0.4c0.1,-0.5 0.3,-1.1 0.4,-1.6c-0.2,-0.1 -0.3,-0.1 -0.5,-0.2c-0.2,0.5 -0.4,0.9 -0.7,1.4Zm-11.9,-86.5c-0.3,-0.1 -0.6,-0.2 -0.8,-0.3c-0.1,0.5 -0.1,0.9 -0.2,1.4c0.2,-0 0.4,0.1 0.5,0.1c0.2,-0.4 0.3,-0.8 0.5,-1.2Zm-1.1,67.6l0,-0.6c-0.8,0.1 -1.6,0.2 -2.3,0.2l0,0.4l2.3,-0Zm23.5,-70c0.2,0.1 0.3,0.1 0.5,0.2c0.2,-0.4 0.4,-0.8 0.6,-1.2c-0.3,-0.1 -0.6,-0.2 -0.9,-0.4c-0.1,0.4 -0.1,0.9 -0.2,1.4Zm13.6,-10.2l-0.5,-0c0,0.6 0.1,1.1 0.1,1.7l0.4,-0l0,-1.7Zm-30.6,63.3c0.1,-0.1 0.2,-0.3 0.3,-0.4c-0.2,-0.3 -0.5,-0.7 -0.7,-1c-0.2,0.2 -0.4,0.4 -0.6,0.6c0.3,0.3 0.7,0.5 1,0.8Zm85.7,37c-0.2,0.3 -0.5,0.5 -0.5,0.5c0.2,0.3 0.4,0.5 0.7,0.8c0.1,-0.2 0.4,-0.4 0.3,-0.5c-0.1,-0.3 -0.3,-0.6 -0.5,-0.8Zm-54.2,-93.7l-0.6,-0c0.1,0.3 0.1,0.7 0.2,1l0.2,-0c0.1,-0.3 0.1,-0.7 0.2,-1Zm-5.5,-1.3l0,0.3c0.3,-0 0.6,-0.1 0.8,-0.1c0,-0.1 0,-0.3 -0.1,-0.3c-0.2,-0 -0.4,0.1 -0.7,0.1Zm-31.9,-2.8l0.2,-0c0,-0.3 0,-0.6 0.1,-0.9l-0.2,-0c-0.1,0.3 -0.1,0.6 -0.1,0.9Zm34.4,75.5l0,-0.5c-0.3,-0 -0.7,0.1 -1,0.1l0,0.2c0.3,0.1 0.6,0.2 1,0.2Zm47.9,-165.1c-0.1,-0 -0.3,-0 -0.4,0.1c0,0.3 0.1,0.6 0.1,0.9c0.1,-0 0.3,-0 0.4,-0.1c0,-0.3 -0.1,-0.6 -0.1,-0.9Zm0.8,31l-0.3,-0l0,1.1l0.3,-0l0,-1.1Zm-29.1,-2.7l0.1,-0.2l-0.2,-0l0.1,0.2Zm-52.2,85.6c-0.1,-0.1 -0.1,-0.2 -0.2,-0.3c-0.1,0.1 -0.2,0.1 -0.2,0.2c0,0.1 0.1,0.2 0.2,0.2c0.1,0.1 0.1,-0 0.2,-0.1Zm29.2,71l0.2,0.2l0,-0.3l-0.2,0.1Zm-11.6,-95.2c0.1,-0.1 0.2,-0.1 0.2,-0.2c0,-0.1 -0.1,-0.2 -0.1,-0.3c-0.1,0.1 -0.2,0.2 -0.2,0.2c-0.1,0.2 0,0.3 0.1,0.3Z" style="fill:#212a5e;fill-rule:nonzero;"/><path d="M588.6,366.4c-0.4,-0.6 -0.6,-0.9 -0.9,-1.2c-0.2,0.1 -0.4,0.2 -0.4,0.4c-0.2,1.1 -0.5,2.1 -0.6,3.2c-0.1,1.2 0,2.5 -0.1,3.7c-0.2,2.7 -1.5,3.9 -4.1,4.2c-1.3,0.1 -2.7,-0.4 -4.2,0.7c1.8,1.5 3.9,0.5 5.8,1.3c0.8,2.1 -0.2,4.3 -0.7,6.3c-1.2,4.7 -2.6,9.4 -5.2,13.7c-1.3,2.1 -2.5,4.2 -5.6,4.1c-0.6,-0 -1.2,0.9 -2.2,1.6c1.5,0.5 2.4,0.7 3.4,1.1c-0.1,0.7 -0.2,1.2 -0.3,2.1c-1.2,-0.4 -2.1,-0.7 -3.3,-1.2c-1.2,3 -2.4,5.9 -3.9,9.5c1.1,-0.7 1.7,-1.1 2.5,-1.6c0.2,0.4 0.5,0.7 0.7,1c-0.6,2.1 -2.1,2.7 -4.1,2.8c-0.4,1.5 -0.8,3 -1.3,4.6c0.7,0.1 1.1,0.1 1.5,0.2c-0.2,0.8 -0.2,1.8 -0.6,2.4c-1.9,2.3 -1.6,5.1 -2,7.7c-1.5,9.9 -4.6,19.3 -9.9,27.8c-1.2,1.9 -2.1,3.9 -3.2,5.9c-0.9,0.2 -1.9,0.4 -3,0.6c-0.1,1 -0.5,2.1 -0.2,2.9c1.4,3.2 0.2,5.9 -1.2,8.7c-0.5,1 -0.8,2 -1.1,3.1c-0.7,2.8 -1.1,5.7 -1.9,8.6c-0.8,2.5 -0.4,5.4 -0.4,8.1c0,8.6 -0.1,17.2 0,25.8c0.1,4.8 0.5,9.6 0.6,14.4c0.1,4.2 0.3,8.4 0.2,12.5c0,1.5 -0.8,3 -1.4,4.7c-1.3,0.1 -2.3,0.2 -3.3,0.3c-1.2,0.1 -2.4,0.1 -3.6,0.2c-1.2,0.1 -2.4,0.4 -3.6,0.4c-3.7,0.1 -7.3,-0.2 -10.8,1.5c-1.6,0.8 -3.6,0.7 -5.4,0.8c-4.1,0.1 -8.1,0.1 -12.2,-0c-1.3,-0 -2.5,-0.4 -4.3,-0.7c0.9,-2.2 1.6,-4 2.5,-6.1c-1.4,0.3 -2.5,0.5 -3.7,0.8c0.3,1.2 0.5,1.9 0.8,2.9l-4.9,-0c-0.3,-0.7 -1,-1.6 -1,-2.4c0.1,-3.3 -0.5,-6.6 0.6,-9.9c0.5,-1.6 0,-3.6 -0.2,-5.5c-0.3,-2.6 -0.5,-5.1 0.1,-7.7c0.4,-2 0.3,-4.2 0,-6.2c-0.3,-2.6 -0.4,-5.1 0,-7.7c0.4,-2.4 0.1,-4.9 0.1,-7.2c0.6,-1 1.1,-1.8 1.6,-2.7c0,-0.3 0,-0.5 -0.1,-0.7c-0.4,-1.5 -1,-3 -1.2,-4.5c-0.2,-1.4 -0.3,-3 -0.1,-4.4c0.5,-5.3 -0.9,-10.1 -3.3,-14.8c-1.7,-3.2 -3.1,-6.6 -4.5,-10c-0.8,-2.1 -1.2,-4.5 -1.9,-6.7c-0.8,-2.5 -1.9,-5 -3.2,-7.4c-1.9,-3.3 -3.1,-6.9 -4.5,-10.4c-0.3,-0.9 -0.5,-2 -0.4,-2.9c0.5,-2.7 -0.3,-4.8 -2.6,-5.9c-0.3,-1.7 -0.4,-3.2 -0.9,-4.4c-0.7,-1.6 -2,-2.9 -2.8,-4.5c-0.8,-1.6 -1.1,-3.5 -1.9,-5.1c-3.4,-6.5 -7,-12.9 -9.7,-19.8c-1.8,-4.6 -3.1,-9.3 -4,-14.2c0.4,-0.7 0.7,-1.5 1.1,-2.2c-5.6,-9.6 -8.8,-20.2 -12.3,-30.6c-0.1,-0.4 0.1,-0.9 0.1,-1.6c1.7,0.5 3.1,0.6 4.7,0.2c2.2,-0.5 4.7,-0.2 7,-0.2c5.5,-0.1 11.1,-0.1 16.6,-0.1c1.7,-0 3.5,-0.1 5.2,0.2c3.1,0.6 6,-0 9,-0.7c1.8,-0.4 3.6,-0.6 5.5,-0.6c2.1,0.1 3.7,1.2 4.4,3.3c2.4,7 5.8,13.8 6.7,21.3c0.1,0.6 0.3,1.2 0.6,1.7c1,1.8 1.2,3.7 0.1,5.8c0.7,0.5 1.4,1.1 1.9,1.5c0.3,1.6 0.6,2.9 1,4.3c-2.7,0.6 -5.3,0.1 -7.9,-0c0.8,1.7 0.8,1.7 8.9,2.8c0.5,2.3 0.7,4.7 1.4,7c1.7,5.9 3.7,11.6 5.4,17.5c0.5,1.7 0.8,3.6 1,5.4c0.4,3.2 0.6,6.4 0.9,9.5c0.3,3.5 0.6,7.1 0.9,10.6c0,0.2 0.3,0.4 0.7,0.9c2,-4.3 4.9,-7.7 5.2,-12.7c0.6,-10.7 2.5,-21.1 5.3,-31.5c0.4,-1.6 1.5,-3.1 2,-4.7c0.9,-2.8 1.6,-5.7 2.4,-8.8c1.9,-1.2 4.4,-2.5 2.9,-5.9c0.8,-0.2 1.6,-0.4 2.4,-0.6c0.9,-1.9 -1,-3 -1,-4.8c0.2,-1.5 0.5,-3.2 0.6,-4.9c0.2,-3.4 0.3,-3.5 3.8,-4.1c0.2,-0 0.3,-0.3 0.7,-0.6c-0.9,-0.8 -1.8,-1.6 -2.7,-2.5c0.7,-3.2 1.3,-6.4 2,-9.5c2.4,-1.4 4.9,-0.8 7.3,-0.8c11,-0 21.9,0.1 32.9,0.1l3.8,-0c0.2,0.9 0.3,1.5 0.5,2.3c-0.8,0.4 -1.5,0.8 -2.4,1.3c3.2,2 5.8,0.4 8.5,-0.8c0.4,2.9 0.3,5.2 -1.6,7.7Zm-70.1,130.2c0.9,2.6 0.9,2.6 3.2,4c1.9,-1.5 0.9,-3.5 1.2,-5.6c-1.5,0.6 -2.8,1.1 -4.4,1.6Zm40.5,-112.4c2.7,1.4 5,1.9 7.7,0.7c-1.6,-2.3 -3.8,-2.3 -5.9,-2.7c-0.6,0.6 -1,1.1 -1.8,2Zm-87.5,14.3c-1.5,-2.6 -3.8,-1.9 -5.8,-2.7c1,3 1.2,3 5.8,2.7Zm36.5,32.5c-4.3,-0.6 -4.3,-0.6 -5.9,1.9c2.1,0 4.3,0.2 5.9,-1.9Zm1.9,45.6c-0.9,1.2 -2.4,1.8 -1.3,3.4c2.7,-0.2 4,-0.9 3.7,-2.1c-0.6,-0.4 -1.4,-0.8 -2.4,-1.3Zm-39.4,-114.4c0.1,1.2 0.2,2 0.3,2.7c2.1,0.2 3.1,-0.7 3.4,-2.7l-3.7,0Zm29.4,39.2c0.8,2 1.3,3.3 2.8,3.2c0.6,0 1.3,-0.8 2.5,-1.6c-2,-0.7 -3.3,-1.1 -5.3,-1.6Zm35.2,20.1c1.6,-0.7 3.4,-0.9 4.7,-2.5c-3.7,-0.3 -3.7,-0.3 -4.7,2.5Zm-62.2,-14.2c-0.2,-0.8 -0.3,-1.5 -0.4,-2.4c-1.1,0.2 -1.9,0.3 -2.9,0.5c0.3,1.9 1.3,2.4 3.3,1.9Zm50.6,77.5c0.4,-1.4 -0.3,-1.6 -1.2,-1.8c-1.4,-0.2 -1.8,0.6 -2.2,2c1.2,-0.1 2.2,-0.1 3.4,-0.2Zm40.7,-112.4c-1.6,0.3 -2.2,1 -1.8,2.5c0.4,0.1 1,0.3 1.8,0.5l-0,-3Zm-55.8,134.9c-0.1,-1.3 -0.2,-2.3 -0.3,-3.3c-0.2,0 -0.4,-0.1 -0.7,-0.1c-0.4,1.1 -0.8,2.2 -1.3,3.6c0.9,-0.1 1.4,-0.1 2.3,-0.2Zm65.6,-133c-0.3,-0.1 -0.6,-0.2 -0.9,-0.3c-0.4,0.9 -0.8,1.7 -1.2,2.7c0.7,0.3 1.1,0.5 1.8,0.8c0.1,-1.2 0.2,-2.2 0.3,-3.2Zm-97,-8.7c-1.2,0.7 -2,1.3 -1.8,3c1.1,-0.5 2,-0.9 3.4,-1.5c-0.8,-0.7 -1.2,-1.1 -1.6,-1.5Zm86.1,-3.3c1,0.9 1.5,1.4 2.1,1.9c1,-1.4 0.7,-2.2 -0.9,-2.8c-0.3,0.2 -0.6,0.5 -1.2,0.9Zm-52.9,112.1c0.3,0.1 0.6,0.3 0.9,0.4c0.4,-0.9 0.8,-1.7 1.4,-2.9c-2.3,0.2 -2.2,1.4 -2.3,2.5Zm-25.6,-85.4c0.2,0.3 0.3,0.6 0.6,1.1c0.8,-0.5 1.5,-0.9 2.4,-1.4c-1.4,-1.2 -2.2,-0.6 -3,0.3Zm40.1,151.9c-0.3,-0.3 -0.5,-0.6 -0.8,-1c-1.1,0.6 -2.3,1 -2.6,3.3c1.5,-1 2.5,-1.7 3.4,-2.3Zm26.4,-137.1c-1.9,0.4 -1.9,0.4 -2.2,1.3c-0.1,0.2 0.2,0.5 0.4,1.1c0.7,-1 1.3,-1.7 1.8,-2.4Zm22.5,-6.3c-0.3,0.8 -0.6,1.6 -1.1,2.8c1.7,-1.1 1.7,-1.1 1.1,-2.8Zm-34.2,-21.5c-1,0.2 -1.6,0.3 -2.6,0.5c0.7,0.8 1.2,1.4 2,2.3c0.2,-1.2 0.4,-1.9 0.6,-2.8Zm-28.7,80.4c-2,1 -2,1 -1.7,2.4c0.5,-0.7 0.9,-1.3 1.7,-2.4Zm6.8,27.7c0.1,-0.3 0.2,-0.5 0.3,-0.8c-0.5,-0.4 -1,-0.7 -1.9,-1.3c0,0.8 -0.2,1.5 -0.1,1.6c0.5,0.3 1.1,0.4 1.7,0.5Zm-5.1,-18.2c-0.2,-0.2 -0.4,-0.3 -0.6,-0.5c-0.4,0.5 -0.8,1.1 -1.2,1.6c0.2,0.1 0.3,0.3 0.5,0.4c0.4,-0.5 0.8,-1 1.3,-1.5Zm24.3,-33.7c-0.8,1.1 -0.8,1.1 0.5,1.9c-0.2,-0.8 -0.4,-1.4 -0.5,-1.9Zm15.6,-60.6c-0.2,0.2 -0.4,0.4 -0.7,0.6c0.4,0.4 0.8,0.8 1.3,1.2c0.2,-0.1 0.3,-0.3 0.5,-0.4c-0.4,-0.5 -0.7,-0.9 -1.1,-1.4Zm25.2,-11.5c-1.6,0.4 -1.6,0.4 -1.5,1.6c0.5,-0.6 1,-1.1 1.5,-1.6Zm-18.2,13.6c-1.2,-1.2 -1.2,-1.2 -2.4,-0.3c0.9,0.1 1.5,0.2 2.4,0.3Zm-52.2,139.6c-0.5,1.7 -0.1,2.1 1.4,1.8c-0.5,-0.7 -0.9,-1.1 -1.4,-1.8Zm31.4,-127c-0.3,0.3 -0.7,0.5 -0.7,0.7c0,0.2 0.3,0.6 0.5,0.7c0.2,0 0.5,-0.3 0.8,-0.5c-0.2,-0.3 -0.4,-0.5 -0.6,-0.9Zm32.1,-24.5c-0.1,0.5 -0.4,0.8 -0.2,1c0.1,0.2 0.5,0.3 0.8,0.3c0.1,0 0.3,-0.4 0.3,-0.5c-0.2,-0.3 -0.5,-0.5 -0.9,-0.8Zm-79.5,26.6c0.3,-0.2 0.5,-0.3 0.7,-0.4c-0.2,-0.3 -0.3,-0.5 -0.6,-0.8c0,0 -0.5,0.2 -0.5,0.3c0,0.4 0.2,0.6 0.4,0.9Zm3.6,0.1c0.3,0.3 0.7,0.7 0.8,0.6c0.3,-0.2 0.5,-0.5 0.8,-0.8c-0.3,-0.2 -0.6,-0.5 -0.8,-0.5c-0.3,0 -0.5,0.4 -0.8,0.7Zm12.9,163.8c-0.4,-0.2 -0.7,-0.3 -1,-0.4c-0.1,0.3 -0.2,0.6 -0.2,0.9c0,0.1 0.4,0.4 0.5,0.3c0.2,-0.1 0.4,-0.4 0.7,-0.8Zm62,-166.6c0.4,0.2 0.7,0.4 1,0.5c0.1,0 0.4,-0.4 0.3,-0.5c-0.1,-0.3 -0.3,-0.4 -0.5,-0.7c-0.2,0.2 -0.5,0.4 -0.8,0.7Zm4.4,0.4c0.7,0.1 1.3,0.1 2.5,0.3c-1.1,-1.3 -1.6,-1.8 -2.5,-0.3Zm-54.7,139.2c0.2,-0.2 0.4,-0.4 0.6,-0.6c-0.3,-0.3 -0.7,-0.6 -1,-0.9c-0.2,0.1 -0.3,0.3 -0.5,0.4c0.4,0.4 0.6,0.8 0.9,1.1Zm-15.9,-9.8c-0.1,0.3 -0.2,0.6 -0.3,0.9c0.5,0 1.1,0.1 1.6,0.1c0,-0.2 0,-0.4 0.1,-0.6c-0.4,-0.1 -0.9,-0.3 -1.4,-0.4Zm34.2,-15.9c-0.2,0.2 -0.4,0.3 -0.6,0.5c0.3,0.3 0.7,0.6 1,0.8c0.1,-0.1 0.2,-0.3 0.4,-0.4c-0.2,-0.3 -0.5,-0.6 -0.8,-0.9Zm-44.5,-129.4c-0.1,0.1 -0.2,0.2 -0.4,0.3c0.2,0.3 0.5,0.6 0.7,1c0.1,-0.1 0.3,-0.2 0.4,-0.3c-0.2,-0.4 -0.5,-0.7 -0.7,-1Zm37.7,182.2l0,-0.3l-0.8,-0l0,0.2c0.2,-0 0.5,-0 0.8,0.1Zm47.8,-166l0,0.6c0.3,-0.1 0.7,-0.1 1,-0.2l0,-0.2c-0.4,-0.1 -0.7,-0.2 -1,-0.2Zm-42.5,6.2c-0.1,-0.1 -0.1,-0.2 -0.2,-0.2c-0.1,0.1 -0.2,0.1 -0.2,0.2c0,0.1 0.1,0.2 0.2,0.2c0,-0 0.1,-0.1 0.2,-0.2Zm-26.8,146.1l-0.1,0.2l0.2,-0l-0.1,-0.2Z" style="fill:#00acd8;fill-rule:nonzero;"/><path d="M709.5,555.2c-0.2,0.5 -0.5,1 -0.7,1.5c0,0.1 -0.2,0.1 -0.6,0.2c-0.3,-0.5 -0.5,-1.1 -0.9,-1.9c-2,-0.3 -4.1,-0.2 -5.8,1.1c-0.6,-0.4 -1.1,-0.7 -1.6,-1.1c-16.2,1.7 -32.3,2.5 -48.7,-0.7c-1.1,1.2 -2.6,1.2 -4.4,0.8c-6.1,-1.4 -12.3,-2.4 -17.9,-5.2c-6.3,-3.1 -12,-7.1 -16.5,-12.7c-7,-8.7 -11.2,-18.6 -12.6,-29.7c-0.8,-6.8 -1.1,-13.7 -1.5,-20.6c-0.1,-1.7 0.7,-3.4 0.6,-5c-0.1,-1.5 -1.1,-2.9 -1.3,-4.4c-0.2,-1.9 -0.2,-3.9 0,-5.9c0.1,-1.1 0.6,-2.2 1.1,-3.8c-0.9,-0.9 -1,-2.5 -0.9,-4.3c0.3,-5.5 0.5,-11 0.7,-16.6c0.1,-1.6 0.2,-3.2 -0.2,-4.7c-1,-4.3 -0.6,-8.5 -0.2,-12.8c0.3,-2.9 0.2,-5.9 0.3,-8.9c0.1,-3.2 0.2,-6.4 0.1,-9.6c-0.1,-2.9 0.6,-5.4 3.3,-6.9c0.3,-1.1 0.6,-2.2 0.9,-3.4c-0.6,-0.3 -1.2,-0.6 -2.1,-1c0.2,-1.3 0.2,-2.6 0.5,-3.9c1.1,-3.9 2.2,-7.8 3.5,-11.6c1.4,-4 4.2,-7.3 7.5,-9.8c1.9,-1.5 3.2,-3.6 5.4,-4.7c0.8,-0.4 1.1,-1.8 1.8,-3.1c3.4,-2 7.1,-4.2 10.7,-6.4c4.8,-2.9 10.1,-3.4 15.6,-3.7c6.1,-0.3 12.3,-0.8 18.4,-1.3c1.4,-0.1 2.9,-0.6 4.2,-1.1c1.9,-0.6 3.8,-0.8 5.7,0c0.9,0.3 1.9,0.4 2.9,0.5c2,0.1 3.9,0 5.9,0c7.1,0.2 14.2,0.3 21.4,0.6c1.2,0 2.4,0.6 3.5,1c0.9,0.3 1.7,0.9 2.6,1.3c1.3,-0.8 2.5,-1.5 4,-2.4l0,9.5c0.6,0.5 1.1,1 1.6,1.5c0.4,3.6 0.8,7.1 1.2,10.6c0.6,4.7 0.4,9.3 -2.5,13.4c-0.7,1 -0.8,2.3 -1.2,3.5c-0.5,0.2 -1.2,0.6 -1.6,0.5c-2.2,-1 -4.3,-0.1 -6.5,0.2c-2,0.3 -4.1,0.7 -6.2,0.7c-6.3,0 -12.5,-0.1 -18.8,-0.1c-0.8,0 -1.7,0.1 -2.5,0.4c-7.1,2.7 -14.1,5.7 -20,10.7c-3.7,3.2 -6.6,7 -8.3,11.5c-1,2.7 -1.4,5.6 -2.1,8.5c-0.1,0.5 -0.2,1 0,1.5c1.1,2.9 0.6,5.7 -0.2,8.6c-0.3,1.2 0.1,2.6 0.2,3.9c0.2,2.2 0.6,4.4 0.7,6.6c0.3,7.7 0.5,15.5 0.8,23.5c-1.3,0.3 -2.3,0.5 -3.5,0.8c-0.4,2.1 -0.2,4.3 0.5,6.7c0.3,-0.8 0.6,-1.5 1,-2.4c0.2,0.1 0.7,0.2 0.7,0.4c0.4,1.9 1.1,3.8 1.1,5.7c0.2,4.9 0.2,9.8 0.1,14.8c0,4.2 0.5,8.3 2.9,12c-0.4,0.5 -0.8,0.9 -1.2,1.4c0.1,0.2 0.2,0.5 0.3,0.7c4.5,4.4 10.1,6.4 16.3,6.8c8.4,0.5 16.7,0 25,-1.2c0.2,0 0.5,-0.1 0.7,-0.1c6.2,-0.3 12.5,-0.7 18.7,-0.9c3.7,-0.1 4.7,1 5.1,4.7c0.2,1.5 0.4,3 0.9,4.3c1.6,4 2,8 1.8,12.3c-0.2,2.8 0.4,5.6 0.3,8.4c0,2.2 -0.5,4.3 -0.8,6.5c-0.3,1.6 -1.7,2.4 -3.1,2.8c-1.8,0.7 -3.8,1 -6.1,1.5Zm-70,-160.7c1.6,-0.1 2.9,-0.2 4.2,-0.3c0.1,0 0.3,-0.3 0.6,-0.7c-1.8,-0.7 -3.5,-1.2 -5.7,-1.1c0.3,0.7 0.5,1.2 0.9,2.1Zm16.1,-33.8c-1.9,-0.3 -3.1,-0.5 -4.5,-0.8c0.3,2.5 0.3,2.5 3.3,2.7c0.3,-0.5 0.6,-0.9 1.2,-1.9Zm-21.9,19.1c2.2,0.9 4,1.6 5.7,2.4c-1.1,-2.4 -3.3,-2.9 -5.3,-4.1c-0.2,0.7 -0.3,1.1 -0.4,1.7Zm-12.9,157.3c-0.3,1.8 -0.6,3.4 1.5,4.6c0.4,-1.4 0.7,-2.5 1,-3.6c-0.6,-0.4 -0.9,-0.7 -1.4,-0.8c-0.3,-0.1 -0.6,-0.1 -1.1,-0.2Zm7.2,-138.3c-1.2,2.6 -1.2,2.6 0.7,4.1c1,-1.4 1.3,-2.7 -0.7,-4.1Zm5.8,5.7c-2.7,1.7 -2.8,2.2 -1.1,4.2c0.4,-1.3 0.7,-2.3 1.1,-4.2Zm9.1,141.9c-1.3,0.4 -1.9,0.6 -3.1,0.9c1.1,0.8 1.7,1.2 2.5,1.8c0.3,-0.8 0.4,-1.4 0.6,-2.7Zm-14.6,-50.7c-0.2,0 -0.5,0 -0.7,0.1c-0.1,0.4 -0.3,0.9 -0.3,1.3c-0,0.4 0.2,0.8 0.5,1.8c0.6,-1 0.9,-1.5 1,-2c-0,-0.3 -0.4,-0.8 -0.5,-1.2Zm10.9,-132.5c0.1,-0.3 0.2,-0.6 0.3,-0.9c-0.5,0 -1,-0.1 -1.5,-0.1c0,0.2 -0.1,0.3 -0.1,0.5c0.4,0.2 0.9,0.4 1.3,0.5Zm-9.4,118.3c-0.1,-0.2 -0.2,-0.3 -0.3,-0.5c-0.3,0.1 -0.5,0.2 -0.8,0.3c0.1,0.2 0.2,0.4 0.2,0.7c0.4,-0.2 0.7,-0.4 0.9,-0.5Zm1.6,-93.4l-0.2,0c-0.1,0.3 -0.1,0.6 -0.2,0.8l0.3,0c0,-0.2 0,-0.5 0.1,-0.8Zm46.6,-3l0,-0.3c-0.1,0 -0.2,0.1 -0.4,0.1c0,0.1 0.1,0.2 0.1,0.3c0.1,-0.1 0.2,-0.1 0.3,-0.1Zm6.5,-1.3c-0.1,-0.2 -0.2,-0.4 -0.3,-0.4c-0.2,0 -0.4,0.2 -0.6,0.2c0.1,0.2 0.2,0.4 0.3,0.5c0.2,0 0.4,-0.2 0.6,-0.3Z" style="fill:#00acd8;fill-rule:nonzero;"/><path d="M362.6,475.7c1.5,1 1.5,2.6 1.6,4.1c0.2,3.8 0.2,7.6 0.5,11.4c0.3,3.4 0.8,6.8 1.2,10.2c0.2,1.9 1.1,3.4 2.2,4.9c1.6,2.3 2.7,4.9 4.1,7.4c0.3,0.5 0.5,1.1 0.8,1.7c2.9,-0.9 5.6,-0.6 8.4,-0.2c2,0.3 4.1,-0.3 6.2,-0.7c8.2,-1.2 16.5,-1.5 24.5,1c4,1.2 7.9,1.3 12,1.3c1.7,0 3.5,-0.2 4.9,1.1c-0.5,0.9 -1,1.8 -1.7,3c0.9,-0.1 1.5,-0.2 2.2,-0.3c0.1,0.7 0.4,1.3 0.3,2c-0.3,4.1 0.9,8.3 -0.8,12.4c-0.3,0.6 -0.1,1.5 0.1,2.2c1.5,4.2 0.5,8.5 0.7,12.8c0.1,1.7 -0.7,3 -2.2,3.9c-1.1,0.7 -2.1,1.6 -3.5,2.7c-6.7,-1 -13.7,0.4 -20.8,0.1c-8.5,-0.4 -16.9,-0.8 -25.2,-1.1c-0.6,-0.8 -1,-1.2 -1.4,-1.8c-2.6,0 -5.4,1.8 -8.4,-0.2c1.4,-0.6 2.5,-1.1 4,-1.8c-1.1,-0.5 -1.7,-0.8 -2.8,-1.4c-1.3,1.5 -2.7,3.1 -4.3,4.9c-1.6,-0.2 -3.4,-0.3 -5.1,-0.8c-5.5,-1.5 -11.2,-2.4 -16.4,-5.1c-4.8,-2.5 -9.3,-5.6 -13.1,-9.4c-8.3,-8.4 -12.7,-18.8 -14.6,-30.3c-0.8,-5.1 -1.1,-10.2 -1.6,-15.4c-0.2,-1.7 -0.5,-3.4 -0.6,-5.1c-0.2,-2.7 -0.4,-5.4 1.5,-7.6c-2.6,-4 -2.8,-5.3 -2,-12c0.8,-0.5 1.7,-1.1 2.9,-1.8c-0.9,-0.6 -1.5,-1 -2.5,-1.7c0.2,-5.5 -0.3,-11.2 0.5,-17c0.3,-2.1 -0.1,-4.4 -0.2,-6.6c0,-1.1 -0.2,-2.2 0.1,-3.2c0.7,-2 0.4,-3.6 -0.5,-4.5c0,-2.6 0.1,-4.5 0,-6.5c-0.2,-6.3 -0.6,-12.5 -0.7,-18.8c-0.1,-3.9 0,-7.9 0,-12.1c1.3,-1 2.6,-2 4.3,-3.3c1.1,-4 2.2,-8.3 3.4,-12.7c0.7,-2.5 1.6,-4.9 2.7,-7.2c2.2,-4.8 6,-8 11.1,-9.6c2.8,-0.9 5.7,-1.3 8.9,-2c2.6,-3.5 6.7,-5.1 11.4,-5.5c7.1,-0.6 14.2,-1 21.3,-1.5c1.1,-0.1 2.2,-0.4 3.3,-0.4c1.1,-0.1 2.4,-0.3 3.2,0.1c2.2,1.3 4.5,0.8 7,1.2c-0.1,-0.7 -0.1,-1.2 -0.2,-1.9c0.6,-0.1 1.1,-0.2 1.7,-0.2c2.7,0 5.4,-0.1 8.1,0c6.9,0.2 13.8,0.3 20.6,0.6c1.1,0 2.1,0.4 3.2,0.8c1,0.4 2,1 3,1.5c1.2,-0.8 2.3,-1.5 3.7,-2.4c0.1,1.1 0.3,1.9 0.3,2.6l0,10.7c0,3.6 -0.7,7.2 0,10.9c0.4,2.1 0.5,4.4 -0.5,6.5c-0.2,0.5 -0.1,1.2 0.1,1.8c0.9,2.1 0.5,4.1 -0.5,5.9c-2.1,1.5 -3.8,-0.5 -6.1,-0.5c-8.9,4.1 -18.6,2.8 -28.2,2.4c-3.6,-0.1 -7.1,-0.1 -10.7,-0.2l-11,0c-3.3,3.2 -5.3,7.3 -6.5,11.9c-1.9,7.4 -2.6,14.9 -2.4,22.6c0.1,5.1 -0.4,10.3 -0.5,15.5c0,2.1 0.4,4.1 0.5,6.2c0.1,6.2 0,12.3 0,18.7c-1.1,0.3 -2.2,0.6 -3.4,0.9c-0.7,2.1 0.1,4 0.9,6.1c0.4,-0.3 0.7,-0.7 1,-1.2Zm45.9,-107.9c0.1,0.1 0.1,0.3 0.2,0.3c-0.1,0 -0.2,-0.1 -0.2,-0.3c-0.2,-0.1 -0.3,-0.2 -0.2,-0.1c-0.2,-0.1 0,0 0.2,0.1Zm-88.7,145.7c1.2,1.8 2.3,3.3 3.2,4.8c0.6,1.2 0.9,2.5 1.5,3.7c0.5,1 0.8,2.4 2.7,2.2c-0.3,-4.4 -2.2,-8.2 -4.1,-12c-0.5,-1.1 -1.4,-2.1 -2.9,-1.9c-0.1,0.2 -0.4,0.4 -0.4,0.6l0,2.6Zm74.8,9.7c0.2,3.5 0.8,4 4.2,3.8c-0.6,-2.1 -1.8,-3.4 -4.2,-3.8Zm-28.2,-162.7c1,1.9 1.9,2.6 3.2,2.2c0.9,-0.3 1.4,-1 0.6,-2.2c-1,0.3 -2.1,-1.3 -3.8,-0Zm2.4,35.7l-3.1,-0c-0.2,1 -0.4,1.9 -0.7,3.1c0.9,0.1 1.6,0.2 2.4,0.3c0.5,-1.2 0.9,-2.1 1.4,-3.4Zm-13.5,150.8c1.1,1 1.7,1.6 2.5,2.3c0.4,-1 0.7,-1.5 1.1,-2.5c-1.2,-0 -2,0.1 -3.6,0.2Zm26.4,-21.5c-0.3,-0.1 -0.6,-0.1 -0.8,-0.2c-0.3,0.6 -0.7,1.3 -1.1,2c0.6,0.4 1,0.6 1.7,1.1c0.1,-1.2 0.2,-2 0.2,-2.9Zm11.7,2.4c-0.9,1.6 -0.8,2.5 0.4,3.4c0.7,-1.2 0.9,-2.1 -0.4,-3.4Zm-55,11.4c-1,0.1 -1.5,0.2 -2.2,0.3c0.5,0.8 0.9,1.5 1.6,2.7c0.2,-1.3 0.3,-1.9 0.6,-3Zm-7,-6c0.1,1.4 0.1,1.4 1.5,1.8c-0.1,-0.4 -0.1,-0.7 -0.3,-1c-0.3,-0.2 -0.7,-0.4 -1.2,-0.8Zm22.8,-141.2c1.1,1.7 1.1,1.7 1.9,0.5c-0.5,-0.1 -0.8,-0.2 -1.9,-0.5Zm62.8,140.7c-0.1,0.3 -0.2,0.6 -0.2,0.9c0,0.1 0.4,0.2 0.6,0.3c0.1,-0.3 0.3,-0.5 0.3,-0.8c0,-0.1 -0.3,-0.2 -0.7,-0.4Zm0.5,-1.7c0.1,0.1 0.3,0.1 0.4,0.2c0.2,-0.3 0.4,-0.7 0.5,-1c-0.3,-0.1 -0.5,-0.2 -0.8,-0.3c0,0.3 0,0.7 -0.1,1.1Zm-45.9,-144.6c0.1,0.2 0.2,0.3 0.3,0.5c0.3,-0 0.7,-0 0.8,-0.2c0.2,-0.3 0.1,-0.7 0.3,-1.5c-0.8,0.7 -1.1,0.9 -1.4,1.2Z" style="fill:#00acd8;fill-rule:nonzero;"/><path d="M742.4,379.3c-0.7,-1 -1.2,-1.8 -1.6,-2.5l0,-19.9c2.9,0 5.8,-0.3 8.5,0c1.5,0.2 2.9,0.2 4.3,0c1,-0.2 2,-0.1 3,-0.1c7.6,0.2 15.2,-0.3 22.9,-0.8c1.4,-0.1 2.8,0.3 4.4,0.4c0.1,1.4 0.2,2.3 0.2,3.3c-0.1,8.7 -0.1,17.5 -0.2,26.2c-0.1,5.3 -0.4,10.6 -0.5,15.9c0,1.9 -0.3,3.8 1.2,5.5c1.1,1.3 -0.4,2.4 -1.3,3.3l0,4.5c0.7,0.8 1.3,1.7 2.1,2.6c0,0.3 0.1,0.7 0.1,1c0.3,7.5 0.4,15 1,22.5c1,11.9 0.7,23.9 0.5,35.8c-0.1,2.8 -0.5,5.6 -0.8,8.4c-0.2,2.8 -0.6,5.6 -0.6,8.4c0,5.5 0.2,11.1 0.3,16.4c1.3,0.8 2.4,1.6 3.5,2.2c0.8,0.4 1.8,0.8 2.7,0.8c2.1,0.1 4.2,-0.1 6.3,-0.2c1,0 2.1,0.1 3.6,0.2c-1.6,2.3 -3.6,1.6 -5.2,1.8c-1.8,0.2 -3.7,-0.4 -5.5,0.9c0.3,0.6 0.6,1 0.9,1.6c16,-2 32.1,-2.8 48.1,-2.6c0.4,-0.6 0.8,-1.2 1.3,-2l3.1,0c0.1,0.7 0.1,1.3 0.2,2.1c3.2,0.8 6.5,0.2 10,0.6c1.9,-2.1 4.4,-2.7 7,-2.2c0.3,0.3 0.4,0.4 0.4,0.5c0.3,8.1 1,16.2 0.6,24.2c-0.3,6.1 -0.3,12.2 -0.6,18.2c-0.2,0.2 -0.3,0.3 -0.4,0.3c-0.1,0.1 -0.2,0.1 -0.3,0.1l-119,0c-0.4,0 -0.7,-0.1 -1.1,-0.2c-0.1,0 -0.2,-0.1 -0.3,-0.2c-0.1,-0.1 -0.2,-0.2 -0.1,-0.1c-0.6,-5.9 -1.1,-11.6 -1.8,-17.3c-0.6,-4.5 0.1,-8.8 0.7,-13.2c0.4,-3.5 1.1,-7 1.1,-10.6c-0.1,-42.2 -0.1,-84.5 -0.3,-126.7c-0.1,-2.9 0.6,-5.9 1.6,-9.1Zm30.7,-14.4l-0,-3.5l-4.2,0c0.2,1.2 0.3,2.1 0.5,3.2c1.3,0.1 2.4,0.2 3.7,0.3Zm-11.8,4.3c1.6,-0.1 2.7,-0.1 4,-0.2c-0.1,-1.2 -0.1,-2.1 -0.2,-3.2l-2.4,0c-0.4,1 -0.8,2 -1.4,3.4Zm8,83.5c-0.3,1.3 -1.3,2.3 -0.3,3.7c1.4,-0.8 3,-1.2 2.1,-3.4c-0.6,-0.1 -1.1,-0.2 -1.8,-0.3Zm2.1,7c-0.9,-0.3 -1.5,-0.4 -2.1,-0.6c-0.4,1.4 -0.4,2.3 0.9,2.6c0.3,0.1 0.7,-0.1 1.1,-0.2c-0.1,-0.6 -0,-1 0.1,-1.8Zm-6.6,-87.3c1.6,0.8 2.8,0.5 3.3,-1.4c-1.1,0.4 -2.2,0.9 -3.3,1.4Zm6.9,115.5c0.2,-1.1 0.7,-2.2 -0.3,-3.5c-1.4,1.6 -0.1,2.5 0.3,3.5Zm1,-107.8c0.5,-0.9 1.3,-1.9 -0.6,-2.9c0.2,1.3 0.4,2.1 0.6,2.9Zm36.7,159.9c-0.1,-0.2 -0.2,-0.5 -0.3,-0.7c-0.4,0.1 -0.9,0.1 -1.3,0.3c-0.3,0.2 -0.5,0.5 -0.8,0.8c0.1,0.2 0.2,0.3 0.3,0.5c0.8,-0.4 1.5,-0.7 2.1,-0.9Zm-38.6,-71.1l0.8,0c-0.1,-1.1 -0.3,-2.2 -0.4,-3.3c-0.5,0.4 -0.6,0.8 -0.6,1.3c-0,0.6 0.1,1.3 0.2,2Zm64.7,74.8c-0.2,-0.2 -0.4,-0.3 -0.5,-0.5c-0.5,0.5 -0.9,1 -1.4,1.5c0.2,0.1 0.3,0.3 0.5,0.4c0.5,-0.4 1,-0.9 1.4,-1.4Zm-74.1,-124.9c-0.1,1.2 -0.2,1.6 -0.1,1.8c0.1,0.3 0.5,0.5 0.7,0.8c0.1,-0.1 0.3,-0.2 0.4,-0.3c-0.2,-0.5 -0.4,-1 -1,-2.3Zm-14.6,85c0.3,-0.4 0.5,-0.7 0.6,-0.9c-0,-0.1 -0.3,-0.4 -0.4,-0.4c-0.3,0.1 -0.6,0.3 -0.7,0.5c-0,0.1 0.3,0.4 0.5,0.8Zm14.7,-98.8c-0.2,0.1 -0.3,0.1 -0.5,0.2c0.1,0.3 0.2,0.7 0.4,1c0.2,-0.1 0.4,-0.1 0.6,-0.2c-0.1,-0.3 -0.3,-0.6 -0.5,-1Zm-1.3,-14.3c-0.2,0.2 -0.3,0.4 -0.5,0.5c0.2,0.2 0.5,0.4 0.7,0.6c0.1,-0.2 0.3,-0.4 0.3,-0.5c-0.1,-0.2 -0.3,-0.4 -0.5,-0.6Zm10,54.3l-0.2,0l-0,0.8l0.2,0l-0,-0.8Zm-7.1,-35.1c-0.4,0.3 -0.6,0.5 -0.6,0.6c0.1,0.2 0.3,0.4 0.4,0.5c0.1,-0.2 0.1,-0.5 0.2,-1.1Zm1.2,112.3l0.1,-0.3l-0.2,0l0.1,0.3Z" style="fill:#00acd8;fill-rule:nonzero;"/><path d="M816.5,616.8c0.2,0.2 0.8,0.6 1.4,1.1c-0.2,0.5 -0.3,0.9 -0.4,1c3.9,6.9 8.3,13.3 13.7,18.9c0.7,0.7 1.3,1.3 2.5,2.5c-0.6,-4.6 0.2,-8.4 0.8,-12.2c-0.2,-1.2 -0.6,-2.4 -0.6,-3.6l0,-31.2c0.8,-0.3 1.6,-0.8 2.3,-0.8c6.7,-0.1 13.5,-0 20.6,-0c0,1.4 0.1,2.7 0.1,4c0,15.1 -0.2,30.3 0.1,45.4c0.2,6.7 0.8,13.5 0.5,20.2c-0.2,5.4 -0.4,10.8 -0.6,16.2c0,1.5 0.2,2.8 0.9,4.2c0.6,1.4 0.7,3.5 0,4.9c-0.8,1.7 -0.9,3.2 -1,5c-0.3,0.3 -0.7,0.5 -1.3,1c0.4,0.5 0.9,1.1 1.8,2.2l-22.6,-0c-1.8,-1.4 -2.5,-4 -3.5,-6.3c-0.8,-1.8 -1.2,-3.7 -1.7,-5.6c-1.4,-5.3 -3.4,-10.4 -5.8,-15.4c-2.4,-4.8 -4.2,-9.9 -6.4,-14.8c-2.3,-5.3 -4.7,-10.5 -7.1,-15.7c-0.1,-0.3 -0.5,-0.5 -1.2,-1c-0.5,7.3 0.2,14.4 -1.9,21.4c2,1.6 1.8,4.6 1.4,6.7c-0.5,2.8 0.1,5.5 0.1,8.2c0,0.8 0.1,1.7 0.2,2.5c-0.5,0.6 -1,1.2 -1.8,2.1c0.6,0.2 1.1,0.5 1.4,0.6l0,7c-0.6,0.6 -1.2,1.2 -1.9,2c0.9,0.3 1.5,0.4 2.4,0.7c0.5,1.4 1.1,3 1.8,4.8c-1.5,2.1 -4,3 -6.5,3c-6.6,0.2 -13.3,0.1 -20.4,0.1c2.3,-2.7 2.5,-5.6 2.4,-8.5c-0.1,-6.5 0,-13 0,-19.6l0,-3.7c1.1,-0.5 1.9,-0.8 2.7,-1.2c0,-2 -1.4,-1.4 -2.7,-1.4l0,-3.6c0,-4.2 0.3,-8.5 0,-12.7c-0.3,-4.3 0,-8.6 -0.2,-12.9c-0.3,-6.5 -0.8,-13 -1.2,-19.5c-0.3,-5.1 -0.6,-10.3 -1,-15.9c1.3,-0.9 2.8,-1.9 4.3,-3c-0.1,-0.6 -0.3,-1.3 -0.4,-2.2c2.2,-0 4.1,-0.1 6.1,-0c2.6,0.1 5.1,0.2 7.7,-0c3.9,-0.3 7.3,1.5 9,5.2c1.3,2.8 2.1,5.7 3,8.6c0.7,2.6 1.1,5.3 2.4,7.7c0.3,1 0.3,2.1 0.6,3.6Zm29.4,-16.2c-1.2,0.4 -1.9,0.4 -2.2,0.8c-1.1,1.3 -1,2.8 0.1,4.2c0.4,-0.7 0.4,-1.5 0.7,-2.3c0.2,-0.7 0.7,-1.4 1.4,-2.7Zm-7.2,4.1c1.4,-1.7 1.5,-2.1 0.9,-4.2c-0.3,1.6 -0.6,2.9 -0.9,4.2Zm6.7,68.5c1.6,-0.9 1.2,-1.9 0.8,-2.9c0,-0.1 -0.4,-0.1 -0.8,-0.1l0,3Zm-40.8,-2.8c-1.5,1.1 -1.5,1.1 -1.4,2.2c0,0.1 0.4,0.2 0.9,0.4c0.2,-0.9 0.3,-1.7 0.5,-2.6Zm-0.7,-24.3c0.6,0.8 1.2,1.5 2,2.7c0.4,-1.9 0,-2.8 -2,-2.7Zm0.6,16.9c-0.5,-1.1 -0.8,-1.9 -1.6,-1c-0.2,0.2 -0.1,0.6 -0.1,0.9c0.4,-0.1 0.9,-0 1.7,0.1Zm45.8,-37.6c0.3,-0 0.5,-0.1 0.8,-0.1c-0.2,-0.6 -0.3,-1.1 -0.5,-1.7c-0.2,0.1 -0.4,0.1 -0.7,0.2c0.1,0.6 0.2,1.1 0.4,1.6Zm1.9,-18.1l0,0.5c0.2,0.1 0.4,0.4 0.5,0.4c0.4,-0.1 0.7,-0.4 1,-0.6c-0.5,-0.1 -1,-0.2 -1.5,-0.3Zm-34.2,40.3c0.1,-0.1 0.3,-0.2 0.4,-0.3c-0.1,-0.3 0,-0.7 -0.2,-0.9c-0.2,-0.2 -0.6,-0.3 -0.9,-0.5c-0.1,0.2 -0.2,0.3 -0.3,0.5c0.4,0.4 0.7,0.8 1,1.2Zm32.8,-17.3c0.3,-0.4 0.6,-0.6 0.7,-0.9c0.1,-0.1 -0.2,-0.5 -0.3,-0.5c-0.3,0.1 -0.7,0.2 -0.8,0.4c-0.1,0.1 0.2,0.5 0.4,1Zm5.6,61.5c-0.1,-1.1 -0.2,-1.7 -0.3,-2.4c-0.6,0.4 -0.9,0.6 -1.5,1c0.6,0.4 1,0.7 1.8,1.4Zm-52.1,-25.5c0,-0.2 -0.1,-0.5 -0.1,-0.7c-0.5,0.1 -1,0.2 -1.6,0.3c0,0.1 0,0.3 0.1,0.4l1.6,-0Zm1.6,-2c-0.2,0.2 -0.3,0.3 -0.5,0.5c0.2,0.2 0.5,0.5 0.7,0.7c0.1,-0.2 0.3,-0.3 0.4,-0.5c-0.2,-0.3 -0.4,-0.5 -0.6,-0.7Zm-0.5,-2.2c0.1,0.2 0.1,0.3 0.2,0.5c0.3,-0.1 0.7,-0.2 0.9,-0.4c0,-0 -0.1,-0.4 -0.2,-0.6c-0.2,0.1 -0.5,0.3 -0.9,0.5Zm-13.1,-68.4l0,-0.2c-0.3,-0 -0.6,-0.1 -0.9,-0.1l0,0.3l0.9,-0Zm13.3,61.2c0.2,0.1 0.4,0.2 0.6,0.3l0,-0.5c-0.2,0.1 -0.4,0.2 -0.6,0.2Zm-18.5,1.5c0.1,-0.2 0.2,-0.4 0.2,-0.5l-0.5,-0c0.1,0.1 0.2,0.3 0.3,0.5Zm13.5,-9.7c-0.1,-0.4 -0.1,-0.2 0,-0c0,-0.2 0,-0.4 0,-0Zm-11,41.3c-0.1,-0 -0.1,-0.1 -0.2,-0.1c-0.1,-0 -0.2,0.1 -0.2,0.2c0.1,-0 0.3,0.1 0.4,0.1l0,-0.2Zm9.6,1c-0.1,-0.1 -0.1,-0.2 -0.2,-0.2l0,0.5c0,-0.2 0.1,-0.3 0.2,-0.3Zm16.8,-46.5l0.1,-0.2l-0.2,-0l0.1,0.2Zm-20.9,-44.6l0.2,0.1l0,-0.2l-0.2,0.1Zm6.7,9.1l0.2,-0.2l-0.3,-0l0.1,0.2Z" style="fill:#212a5e;fill-rule:nonzero;"/><path d="M413,657.4l0,4c-0.5,0.3 -0.9,0.5 -1.3,0.7c0,0.2 0.1,0.4 0.2,0.6c0.4,0.9 1,1.7 1.1,2.6c0.1,9.7 0,19.4 0,29c-1.4,2.2 -3.4,3 -5.8,3.1c-3.3,0.2 -6.6,0.3 -9.9,0.6c-2.2,0.2 -4.1,-0.3 -5.4,-1.7l-5.8,0c-0.4,-2 -0.4,-2 0.6,-5.1c0.8,-0.6 1.7,-1.3 2.5,-1.9c1.5,-24.5 -0.4,-80.4 -3.4,-97.7c0.8,-3.1 3.3,-4.1 6,-4.5c5.5,-0.9 11,-0.7 16.5,-0.7c1.3,0 2.7,-0.2 3.8,1.3c-0.4,0.4 -0.7,0.9 -1.2,1.3c0.6,0.4 1.2,0.8 1.9,1.2c0,7.6 0.1,15.2 0,22.8c-0.1,4 0.1,8 -0.4,12.1c-0.3,3.3 0.7,6.8 1.2,10.5c7.8,0.3 15.4,-0.6 23,-0.4c1.4,-3 -0.5,-6.3 1.7,-8.5c-0.3,-1.4 -0.9,-2.6 -0.9,-3.8c0,-5.2 0.2,-10.3 0.2,-15.5c0,-4.4 -0.2,-8.8 -0.4,-13.2l0,-3.6c2.8,-0.7 17,-0.9 23.4,-0.3c0.1,0.4 0.3,0.8 0.3,1.3l0,48c0,0.5 -0.1,1 -0.2,1.5l0.1,-0.1c-0.2,0.3 -0.5,0.6 -0.7,0.8c-0.4,0.4 -0.8,0.7 -1.1,1.1c0.2,0.1 0.4,0.2 0.6,0.4c0.2,-0.5 0.3,-1 0.5,-1.5c0.3,0 0.6,0.1 0.8,0.1l-0.1,-0.1l0,7.8c-0.3,0.2 -0.7,0.4 -1.2,0.7c0.4,0.7 1.1,1.3 1.2,2c0.2,1.6 0.2,3.2 0.1,4.8c-0.2,5.7 0.5,11.4 1.1,17.1c0.2,2.5 0.7,5.1 -0.4,7.6c0.7,0.5 1.3,0.9 2.2,1.5c-0.7,2 -1.6,3.9 -2.1,5.9c-0.5,2 -0.5,4.1 -0.7,6.3c-2.8,-0.1 -5.5,1 -7.8,-0.8c-5.1,1.9 -10.2,0.5 -15.5,1c-0.2,-1.1 -0.4,-1.9 -0.4,-2.7l0,-21.4c0,-1.4 0,-2.7 1.5,-3.7c-1.3,-1 -2.1,-2.2 -1.4,-3.8c0.9,-1.4 3.5,-0.3 4.1,-2.8c-0.8,0.1 -1.4,0.2 -2.1,0.3c-0.6,0.1 -1.2,0.1 -1.9,0.1c-0.4,-1.7 -0.8,-3.3 -1.3,-5.1l-20.8,0c-0.9,0 -1.8,0.5 -2.8,0.7c-0.4,-0.5 -0.9,-1 -1.5,-1.8c-0.6,0.8 -1,1.4 -1.5,1.9c0.1,0.2 0.2,0.4 0.3,0.6c1.3,0 2.2,-0.3 3.1,-0.6Zm35.3,-52.8c0.5,3 1,6.1 1.6,9.1c0.3,0 0.5,-0.1 0.8,-0.1c-0.3,-3.1 0.4,-6.4 -2.4,-9Zm-36.6,11.5c0.7,-2.9 -0.2,-4.7 -1.2,-7.1c-0.5,3 -0.4,3.5 1.2,7.1Zm0.5,-11.8c-0.8,-0.3 -1.4,-0.5 -2.9,-1.1c1.1,2 0.1,3.5 1.5,5.3c0.5,-1.5 0.9,-2.6 1.4,-4.2Zm33.7,30.3c-0.9,1.6 0.2,2.8 0.5,4.4c1.2,-2.7 1.2,-2.7 -0.5,-4.4Zm-41.5,-6.1c0.5,-1.3 0.5,-2.6 -0.1,-4.2c-1.5,1.8 -0.1,2.9 0.1,4.2Zm6.2,-30.8c-0.5,-0.9 -1.1,-1.8 -1.9,-3.2c-0.4,2.2 0.5,2.9 1.9,3.2Zm-2.8,-4.9c1,-1.2 1,-1.2 -0,-2l-0,2Zm4.2,84.5c-0.8,-1.5 -1.3,-1.3 -1.8,0.1c0.8,-0.1 1.3,-0.1 1.8,-0.1Zm12.5,-22.2c0.1,0.3 0.3,0.6 0.4,0.8c0.6,-0.3 1.2,-0.6 2.2,-1.2c-0.9,-0.1 -1.2,-0.3 -1.5,-0.2c-0.4,0.1 -0.7,0.4 -1.1,0.6Zm30.4,-32.9c-1,1 -1,1 0.1,1.8c-0,-0.7 -0.1,-1.2 -0.1,-1.8Zm-43.3,44.9c0.2,-0.1 0.3,-0.1 0.5,-0.2c-0.1,-0.3 -0.2,-0.7 -0.4,-1c-0,0 -0.4,0.1 -0.6,0.2c0.1,0.3 0.3,0.6 0.5,1Zm38.1,-68.2c-0.2,-0.2 -0.4,-0.3 -0.6,-0.5c-0.2,0.3 -0.4,0.6 -0.5,0.8c0.2,0.1 0.5,0.3 0.7,0.4c0.2,-0.1 0.3,-0.4 0.4,-0.7Zm-42.9,16.1c-0.2,-0.2 -0.5,-0.4 -0.7,-0.5c-0.1,0.4 -1.1,0.1 -0.1,1.5c0.3,-0.4 0.6,-0.7 0.8,-1Zm50.7,-8c0.1,-0.1 0.2,-0.2 0.4,-0.3c-0.3,-0.3 -0.5,-0.6 -0.8,-0.9c-0.1,0.1 -0.2,0.2 -0.3,0.3c0.2,0.3 0.4,0.6 0.7,0.9Zm-65.2,81.4c0.3,-0.4 0.5,-0.4 0.5,-0.5c-0,-0.2 -0.1,-0.4 -0.2,-0.6c-0.1,0.3 -0.1,0.6 -0.3,1.1Zm43.7,-42.9l0.3,0l-0,-0.9l-0.2,0c-0.1,0.3 -0.1,0.6 -0.1,0.9Zm-34.7,-31c1.1,-0.1 1.4,-0.2 1.7,-0.2c-0.1,-0.1 -0.2,-0.2 -0.2,-0.2c-0.3,0 -0.5,0.1 -1.5,0.4Zm2.4,4.3c-0.1,0 -0.2,0 -0.3,0.1c0.1,0.3 0.1,0.5 0.2,0.8c0.1,0 0.3,-0.1 0.3,-0.1c-0.1,-0.3 -0.2,-0.6 -0.2,-0.8Zm4.7,4.2l-0.5,0c-0,0.3 0.1,0.7 0.1,1l0.2,0c0.1,-0.3 0.1,-0.7 0.2,-1Zm1.3,11.3c-0.1,0 -0.2,0 -0.2,0.1c-0.1,0.1 -0,0.2 -0.1,0.3c0.1,0 0.3,-0.1 0.4,-0.1c0,-0.1 -0.1,-0.2 -0.1,-0.3Zm45.2,-7l-0.4,0l0,1.2l0.3,0c0.1,-0.4 0.1,-0.8 0.1,-1.2Zm6.1,66.3c-0.4,-0.3 -0.5,-0.5 -0.5,-0.5c-0.2,0 -0.4,0.1 -0.6,0.2c0.1,0.1 0.4,0.2 1.1,0.3Zm-10.2,-76.4l0.2,0.1l-0,-0.2l-0.2,0.1Zm-49.5,10.9c-0,0.1 -0.1,0.2 -0.1,0.2c-0,0.1 0.1,0.2 0.2,0.2c-0,-0.2 0.1,-0.3 0.1,-0.5c-0,0.1 -0.1,0.1 -0.2,0.1Zm10.4,0c-0,0.1 -0.1,0.2 -0.1,0.2c-0,0.1 0.1,0.2 0.2,0.2c-0,-0.2 0.1,-0.3 0.1,-0.5c-0.1,0.1 -0.1,0.1 -0.2,0.1Zm-2,32.8l-0.2,-0.1l-0,0.2l0.2,-0.1Zm-10.3,-53.2c-0.1,-0.1 -0.1,-0.2 -0.2,-0.2l-0,0.5c-0,-0.2 0.1,-0.3 0.2,-0.3Z" style="fill:#212a5e;fill-rule:nonzero;"/><path d="M494.4,593.1c1.3,-3.4 5.2,-2.8 7.5,-4.7c0.3,0.4 0.6,0.8 0.8,1.1c4.3,-1.6 8.5,-1.8 12.8,-1.6c3.4,0.1 6.8,-0.2 10.2,-0.2c1.2,0 2.8,-0.1 3.5,0.6c1.8,1.8 4.3,2.2 5.8,3.3c0.3,1.8 0.5,3 0.8,4.3c0.5,2.3 1.1,4.5 1.6,6.8c1.4,6.1 2.8,12.1 4.3,18.2c0.4,1.5 0.3,2.9 -0.7,4c0.2,0.9 1.7,1.2 0.8,2.6c-0.3,0.4 0.7,1.6 1.2,2.6c-0.2,0.4 -0.4,0.9 -0.7,1.6c0.4,0.6 0.9,1.3 1,1.4c0.2,2.2 0.3,3.9 0.6,5.5c0.2,0.9 0.5,2 1.1,2.7c1.7,1.7 1.2,3.5 0.5,5.6c0.3,0.2 0.9,0.5 1.1,0.9c2.2,6.1 4.1,12.2 4.9,18.7c0.4,3.5 1.6,6.9 2.4,10.4c0.5,2.1 0.9,4.3 1.1,6.5c0.1,1.3 -0.5,2.7 -0.9,4.5c1.7,1.3 3.4,3.1 1.8,6.8c-0.5,-1.7 -0.8,-2.9 -1.1,-4.1l-0.3,0l0,4.7c-1.3,0.2 -2.4,0.8 -3.3,0.5c-1.9,-0.5 -3.6,-0.3 -5.4,0.4c-0.6,-0.5 -1.2,-0.9 -1.7,-1.4c-0.2,0 -0.5,0 -0.7,0.1c-1.4,1.4 -3.2,1.1 -4.9,1.1c-1.7,-0.1 -3.4,-0.4 -5.1,-0.5c-1.6,-0.1 -3.2,0 -5,0c-0.3,-1.5 -0.5,-2.6 -0.7,-3.7c0.6,-0.6 1,-1 1.6,-1.7c-0.7,-0.4 -1.3,-0.7 -2.1,-1.1c-0.5,-5.9 -1.4,-11.9 -3.1,-18l-7.8,0c-0.7,-1 -1.3,-1.9 -2.2,-3.1c-0.4,0.9 -0.7,1.5 -1,2.5c-1.3,0.2 -2.9,0.4 -4.8,0.7c-0.7,4.4 -1.5,8.7 -2.3,13.1c-1.2,0.1 -2.3,0.1 -3.5,0.2c-1.7,1.1 -3.5,2.2 -5.6,3.5c1,0.7 1.9,1.2 2.9,1.9c-0.3,0.9 -0.6,1.6 -0.9,2.5c-2.4,-0.1 -4.7,1.2 -6.7,-0.6c-2,-0.3 -3.8,1.8 -5.6,0c-3.4,1.8 -6.8,2.6 -10.2,1.3c-1.1,-1.1 -1.2,-2.1 -0.8,-3.2c0.8,-2.1 1.4,-4.2 2.3,-6.2c0.4,-0.8 1.1,-1.5 1.9,-2.4c-0.5,-4.1 0.5,-8.3 1.5,-12.4c1,-4 0.7,-8.5 3.2,-12c2.1,-11.4 4.2,-22.8 6.2,-34.2c1.2,-0.2 2,-0.3 2.6,-0.4c0.7,-3.3 1.6,-6.4 1.9,-9.6c0.3,-3.1 0.1,-6.3 0.1,-9.4c-0.5,-3.5 -0.8,-6.8 -0.9,-10.1Zm25.8,52c-0.4,-3.9 -0.7,-7.7 -1.1,-11.5c-0.4,-3.9 -1.1,-7.8 -1.3,-11.7c-0.5,-6.6 -0.8,-9.1 -2.4,-11.3c-1.4,12.3 -2.8,24.2 -4.1,36c-0.1,0.6 0.1,1.2 0.2,2c3.7,-1 7.2,-1.9 10.7,-2.8l0,-0.4c-0.6,-0.1 -1.1,-0.2 -2,-0.3Zm-20.5,34c1.7,-3.6 0.8,-6.9 1.2,-10.9c-1.6,2.8 -1.8,5.3 -1.2,10.9Zm1.5,-36.1c-0.4,1.4 -1.4,2.8 -0.6,4.9c1.2,-1.8 0.8,-3.4 0.6,-4.9Zm-3.4,-4.5c-0.2,0.2 -0.5,0.4 -0.7,0.7c0.8,0.9 1.6,1.8 2.5,2.7c0.2,-1.8 -0.4,-2.9 -1.8,-3.4Zm-16.9,39.5c0.8,-1.1 1.1,-2.3 0.1,-3.7c-1.2,1.3 -0.9,2.5 -0.1,3.7Zm67.7,-11.9c0,-0.3 0,-0.6 -0.1,-1c-0.6,0.1 -1.2,0.2 -1.8,0.4c0,0.2 0.1,0.4 0.1,0.6l1.8,0Zm-11.3,29c0.2,-0.3 0.3,-0.6 0.5,-0.8c-0.6,-0.2 -1.2,-0.4 -1.9,-0.6c-0.1,0.2 -0.1,0.3 -0.2,0.5c0.5,0.3 1,0.6 1.6,0.9Zm-31.7,-79.9c-0.2,2 -0.2,2 1.3,1.9c-0.4,-0.6 -0.8,-1.2 -1.3,-1.9Zm39.7,42.9c-0.4,-0.2 -0.7,-0.5 -0.9,-0.4c-0.3,0.1 -0.4,0.4 -0.6,0.7c0.2,0.2 0.5,0.5 0.7,0.4c0.3,-0 0.5,-0.3 0.8,-0.7Zm-17,-3.9c0.1,-0.1 0.3,-0.2 0.4,-0.3c-0.3,-0.4 -0.6,-0.8 -1,-1.2c-0.2,0.1 -0.3,0.3 -0.5,0.4c0.5,0.3 0.8,0.7 1.1,1.1Zm-18.7,-21.1c0.1,0.2 0.2,0.4 0.2,0.6c0.5,-0.2 0.9,-0.4 1.4,-0.6c-0.1,-0.2 -0.2,-0.4 -0.2,-0.6c-0.5,0.2 -0.9,0.4 -1.4,0.6Zm-8.6,6.5c1.1,-1 1.1,-1 0,-1.9l0,1.9Zm24,26.9c-0.1,0.3 -0.2,0.5 -0.2,0.8l0.5,0.2c0.2,-0.2 0.3,-0.5 0.4,-0.8c-0.2,0 -0.4,0 -0.7,-0.2Zm14.5,13.6c0.1,-0.1 0.3,-0.3 0.4,-0.4c-0.3,-0.2 -0.5,-0.4 -0.8,-0.6c0,0 -0.2,0.1 -0.3,0.2c0.3,0.2 0.5,0.5 0.7,0.8Zm-17.8,-80.7c0.1,0 0.2,0.1 0.3,0.1c0.2,-0.2 0.4,-0.5 0.6,-0.7c-0.2,-0.1 -0.4,-0.2 -0.6,-0.3c-0.1,0.3 -0.2,0.6 -0.3,0.9Zm-22.7,34.9l0,-0.3l-0.8,0l0,0.2c0.3,0.1 0.5,0.1 0.8,0.1Zm11.1,-3.7c0,-0.1 0,-0.2 -0.1,-0.3c-0.3,0.1 -0.5,0.1 -0.8,0.2c0.1,0.1 0.1,0.2 0.2,0.2c0.3,-0 0.5,-0.1 0.7,-0.1Zm-2.1,-1.8l-0.3,-0l0,0.9l0.2,-0c0.1,-0.3 0.1,-0.6 0.1,-0.9Zm33.3,61.5c-0.1,-0 -0.2,-0.1 -0.2,-0.1c-0.1,-0 -0.2,0.1 -0.2,0.2c0.2,-0 0.3,0.1 0.5,0.1c-0.1,-0 -0.1,-0.1 -0.1,-0.2Zm-11.3,2.8l-0.1,0.3l0.3,-0l-0.2,-0.3Zm-5.7,-48.5c-0.1,-0.1 -0.1,-0.2 -0.2,-0.2l0,0.4c0,-0 0.1,-0.1 0.2,-0.2Zm-4.7,-46.5l0.1,-0.2l-0.2,0l0.1,0.2Zm-13.8,8l-0.2,-0.1l0,0.2l0.2,-0.1Z" style="fill:#212a5e;fill-rule:nonzero;"/><path d="M894.4,650.4c-2.5,1.2 -2.5,1.2 -2.2,4.1c0.7,-0.2 1.3,-0.4 2.1,-0.6c1.3,4 0,8 0.6,12.2c0.6,0.5 1.3,1.1 2,1.7c0.7,2 -0.5,3.3 -1.4,4.6c1.8,0.9 3.4,1.6 5.3,2.6c3.9,-0.5 8.2,-1.1 11.5,2.5l3.5,0c0.4,-0.8 0.8,-1.5 1.4,-2.6c-1.1,-0.1 -1.9,-0.1 -2.9,-0.1c-2,-4.8 -0.6,-10.1 -1.2,-15.2c-1.5,-1.5 -3.5,-1 -5.2,-1.2c-1.9,-2.5 -3.3,-5.2 -2.6,-8.5c0.7,-0.5 1.5,-1 2.6,-1.8c-1.2,-0.4 -1.9,-0.7 -3.2,-1.2c1.2,-0.4 1.8,-0.6 2.5,-0.8c-0.6,-0.4 -1.2,-0.8 -1.9,-1.3l0,-7.9c8,-0.4 15.9,0 23.9,0.1l0,16.8c0,0 -0.7,0.6 -1.4,1.3c0,-0.1 0,0.1 0.1,0.2c0.5,0.6 1.5,1.2 1.5,1.8c-0.1,6 -0.3,12 -0.5,18c0,0.3 -0.2,0.7 -0.4,1.1c0.9,3.6 0.9,5.1 -0.1,8.1c-0.2,-1.5 -0.3,-2.5 -0.4,-3.5c-0.1,0 -0.3,-0.1 -0.4,-0.1c-0.4,1 -0.7,2 -1.2,3.3c0.8,0.5 1.5,0.9 2.2,1.4c1.1,2.6 1.2,5.3 0.7,7.9c-0.1,0.5 -0.8,0.8 -1.3,1.2c-0.4,-0.5 -0.7,-0.9 -1,-1.2c-1.3,0.6 -2.7,1.2 -4,1.8c-4,-1 -8,-0.4 -12,-0.6c-0.2,0 -0.5,0 -0.7,0.1c-2.9,1.7 -5.9,0.7 -8.8,0.1c-1.1,-0.2 -2.2,-0.2 -3.2,-0.3c-0.3,-0.4 -0.5,-0.8 -0.9,-1.2c-0.7,0.6 -1.3,1.2 -2.2,2c-3,-0.8 -6.2,-1.5 -9.3,-2.6c-7.1,-2.7 -11.7,-7.9 -14.3,-14.9c-3.4,-9.2 -4.7,-18.8 -4.6,-28.5c0.1,-4.4 1,-8.8 1.1,-13.2c0,-4.1 1.5,-8.2 0.5,-12.4c-0.3,-1.3 0.4,-2.8 0.5,-4.3c0.2,-4.3 0.3,-8.6 0.6,-12.9c0.4,-5.9 3.7,-9.8 8.7,-12.3c4.3,-2.2 9,-3.2 13.7,-3.9c4.7,-0.7 9.2,-0.6 13.9,-0.1c4.9,0.5 9.8,0.1 14.8,0.1l3.5,0c0.7,2.1 1.2,12.3 0.7,15.2c-0.1,0.8 -0.7,1.5 -1.1,2.2c0.4,0.3 0.8,0.7 1.2,1.1c-0.2,0.4 -0.2,0.7 -0.4,0.8c-1.9,1.4 -4.1,2.2 -6.5,2c-2.4,-0.2 -4.9,-0.4 -7.3,-0.5c-1.6,-0.1 -2.5,-0.8 -3,-2.6c-0.8,1 -1.4,1.7 -2,2.4c-2.4,-0.3 -4.5,-2.6 -7.2,-1c0.1,0.5 0.3,1 0.5,1.8c-3.5,3.8 -4.2,8.7 -4.4,13.8c-1.5,-0.2 -2.9,-0.4 -4.2,-0.6c-0.1,0.3 -0.2,0.5 -0.3,0.8c0.8,0.4 1.5,0.9 2.3,1.3c1.9,1.1 2.2,2 2,4.2c-0.2,1.7 0,3.4 0,5.1c-0.2,4.8 -0.2,9.5 -0.2,14.2Zm31.3,8.5c0.4,-0.3 0.8,-0.7 1.2,-1c-0.2,-0.1 -0.4,-0.3 -0.6,-0.4c-0.2,0.5 -0.4,1 -0.6,1.4c-0.1,0.2 -0.2,0.2 -0.2,0.2c0,0.1 0.1,0 0.2,-0.2Zm-9.2,8.1c-1,-1.8 -0.5,-3.6 -0.4,-5.5c-0.6,-0.1 -1.2,-0.1 -1.9,-0.2l0,4.2c0.8,0.5 1.6,1 2.3,1.5Zm-21.3,-50.5c-1.9,-1 -2.9,-2.7 -5.6,-2.2c1.9,1.1 2.7,3.1 5.6,2.2Zm22.6,-13.1c1.2,1.1 2.3,1 3.3,-0.3c-1.8,-1.3 -1.8,-1.3 -3.3,0.3Zm-26.1,9.4c0.2,-0.1 0.5,-0.1 0.7,-0.2c0,-0.8 -0.1,-1.5 -0.1,-2.3c-0.9,-0.2 -1.7,-0.4 -3.3,-0.8c1.2,1.6 2,2.5 2.7,3.3Zm28.5,-2.2c0.5,-1.2 -0.2,-1.8 -1.1,-1.9c-0.8,-0.1 -2,-0.6 -2.3,1.1c1.2,0.2 2.3,0.5 3.4,0.8Zm-24.4,3.3c0.4,-0.6 0.7,-1.2 1.4,-2.2c-1.4,0.2 -2.3,0.3 -3.8,0.5c1.2,0.8 1.7,1.2 2.4,1.7Zm-6.4,19.8c0.5,2.2 1.7,2.3 3.2,2.9c-0.4,-1.8 -1.4,-2.3 -3.2,-2.9Zm37.5,6c-0.4,0.8 -0.7,1.3 -1.2,2.3c1.1,-0.2 1.6,-0.3 2.4,-0.4c-0.5,-0.7 -0.8,-1.2 -1.2,-1.9Zm-15.9,38.5c-0.2,0.2 -0.4,0.4 -0.6,0.6c0.5,0.5 0.5,1.8 2.4,1.3c-0.8,-0.8 -1.3,-1.4 -1.8,-1.9Zm-13.9,-76.8c0.6,1.5 1.3,1.6 2.5,0.3c-1.2,-0.1 -1.9,-0.2 -2.5,-0.3Zm18.8,4c-1.4,-1.2 -2.1,-1.6 -2.9,0.2c0.9,0 1.6,0 2.9,-0.2Zm2.1,65.5l-0.6,0c-0.1,0.3 -0.3,0.7 -0.2,1c0.1,0.3 0.5,0.5 1.2,1.3c-0.2,-1.3 -0.3,-1.8 -0.4,-2.3Zm5.9,6.2c-0,-0.3 0.1,-0.6 0.1,-0.9l-1.6,0c-0,0.2 -0,0.4 -0.1,0.6c0.6,0.1 1.1,0.2 1.6,0.3Zm-32.4,-60c-0.1,0 -0.3,0.1 -0.4,0.1c0.1,0.6 0.2,1.3 0.4,2c0.5,-0.3 0.7,-0.4 1.1,-0.6c-0.5,-0.5 -0.8,-1 -1.1,-1.5Zm32,44.6l0.5,0l-0,-1.8l-0.5,0l-0,1.8Zm-20.2,21.7c-0.2,-0.1 -0.4,-0.2 -0.6,-0.2c-0.2,0.5 -0.3,0.9 -0.5,1.4c0.2,0.1 0.4,0.1 0.6,0.2c0.2,-0.4 0.4,-0.9 0.5,-1.4Zm-5,-76.1c0.3,0.3 0.5,0.6 0.8,0.6c0.2,0 0.5,-0.3 0.8,-0.5c-0.3,-0.3 -0.5,-0.6 -0.8,-0.9c-0.3,0.3 -0.5,0.5 -0.8,0.8Zm26,62.9c-0.5,-0.3 -0.7,-0.5 -1,-0.7c-0.1,0.3 -0.4,0.5 -0.4,0.8c-0,0.1 0.4,0.4 0.5,0.4c0.3,0 0.5,-0.3 0.9,-0.5Zm-2,-2.2c0.3,0.2 0.5,0.3 0.8,0.4c-0,0 0.3,-0.4 0.3,-0.5c-0.2,-0.2 -0.4,-0.4 -0.6,-0.5c-0.2,0.1 -0.4,0.3 -0.5,0.6Zm-7,-0.3c-0.4,-0.2 -0.7,-0.4 -1,-0.4c-0.1,0 -0.4,0.4 -0.3,0.5c0.1,0.3 0.3,0.4 0.5,0.7c0.3,-0.3 0.5,-0.5 0.8,-0.8Zm10.6,19.9c0.2,-0.1 0.3,-0.3 0.5,-0.4c-0.3,-0.2 -0.6,-0.4 -0.9,-0.6c-0.1,0.1 -0.1,0.2 -0.2,0.3c0.2,0.2 0.4,0.5 0.6,0.7Zm-28.6,-10.5c0.6,-0.5 0.9,-0.8 1.5,-1.5c-1.8,-0.4 -2.2,-0.2 -1.5,1.5Zm6.8,3.1c-0.2,-0.2 -0.3,-0.3 -0.5,-0.5c-0.2,0.3 -0.5,0.7 -0.7,1c0.1,0.1 0.2,0.2 0.4,0.3c0.2,-0.3 0.5,-0.6 0.8,-0.8Zm6.5,-73.3c0.1,-0.1 0.2,-0.3 0.2,-0.4c-0.3,-0.2 -0.5,-0.3 -0.8,-0.5c-0.1,0.1 -0.1,0.2 -0.2,0.3c0.3,0.2 0.5,0.4 0.8,0.6Zm11.7,-3.7l0.3,0c-0.1,-0.3 -0.1,-0.6 -0.2,-0.8c-0.1,0.1 -0.2,0.1 -0.2,0.2c0,0.1 0.1,0.4 0.1,0.6Zm-12.3,78.7c0.2,-0.1 0.4,-0.2 0.6,-0.3c-0.1,-0.1 -0.2,-0.4 -0.4,-0.4c-0.2,-0 -0.3,0.1 -0.5,0.2c0.1,0.2 0.2,0.4 0.3,0.5Zm13,0.3l0.2,-0c0,-0.3 0,-0.6 0.1,-0.8l-0.2,-0c-0.1,0.3 -0.1,0.6 -0.1,0.8Zm0.7,-7.1l0.3,-0c0,-0.4 0,-0.7 0.1,-1.1l-0.4,-0l0,1.1Zm-7.8,-67.5c-0.6,0.2 -0.3,0.1 0,-0c-0.3,-0.1 -0.6,-0.2 0,-0Zm-25.9,10.4c-0.1,-0.1 -0.1,-0.2 -0.2,-0.2l0,0.4c0.1,-0.1 0.2,-0.1 0.2,-0.2Z" style="fill:#212a5e;fill-rule:nonzero;"/><path d="M758.8,610.3c-0.7,0.8 -1.3,1.6 -2.1,2.6c-4.2,1.4 -8.8,-1.3 -13.3,0.4c-0.1,1.3 -0.1,2.5 -0.2,3.8c-0.7,0.8 -1.5,1.6 -2.5,2.8c1,0.1 1.6,0.2 2.4,0.3l-0,3c-1.6,0.6 -3.6,0.3 -4.6,2.1c1.1,1 2.3,-0.1 3.5,-0c0.5,0.5 1.1,1.2 1.6,1.8c0.2,-0 0.5,0.1 0.7,0.1c1.3,-0.2 2.7,-0.7 3.9,-0.5c6.5,1 13,0.4 19.5,0.6c1.1,-0 2.2,0.1 3.3,0.4c0.7,0.2 1.2,0.8 2.1,1.5c-1.2,1.5 -2.2,2.7 -3.4,4.1l-0,16.5c-2.9,2.2 -3.6,2.3 -9.3,1.7c-0.6,-0.7 -1.2,-1.4 -2.1,-2.5c-0.5,1 -0.9,1.7 -1.5,2.6l-13.1,-0c-0.8,2.5 -0.1,4.8 -0.5,7.1c-0.6,0.5 -1.2,0.9 -2,1.5c0.7,0.6 1.3,1.1 2.3,1.9l-0,10.7l13.4,-0c0.4,0.7 0.8,1.5 1.4,2.7c0.4,-1 0.6,-1.6 0.9,-2.6c4.3,-0.3 8.8,-0.5 13.6,-0l-0,3.8c-0,0.7 -0,1.6 0.3,2.1c1.9,2.7 1.2,5.5 0.6,8.4c-0.3,1.5 -0.3,3.1 -0.4,4.7c-0.1,1.2 -0,2.4 -0,3.6c-2.6,0.6 -49.3,0.7 -54,0.2c-0.1,-0.9 -0.4,-1.8 -0.4,-2.8l-0,-55.4c0.7,-0.4 1.4,-0.7 2.5,-1.2c-1,-0.5 -1.6,-0.8 -2.3,-1.2c0.7,-2.4 -0.5,-5 0.9,-7.5c-0.3,-0.4 -0.6,-0.9 -1.1,-1.6c0.8,-1.2 1.1,-2.5 0.2,-3.9c-0.2,-0.3 -0.2,-0.7 -0.2,-1.1c0.6,-4.7 -0.3,-9.3 -0.2,-13.9c0.2,-4.7 0.1,-9.4 0.2,-14c-0,-0.2 0.1,-0.4 0.3,-0.9l6.6,-0c0.3,1 0.7,2 1.1,3.1l0.5,-0c0.2,-0.8 0.3,-1.7 0.6,-2.9c0.8,-0.2 1.7,-0.6 2.6,-0.6c13.5,-0 27.1,-0 40.6,0.1c0.2,-0 0.5,0.2 0.9,0.3c1,1.8 1.5,4 1.4,6.2c-0.2,4.5 -0.6,9 -0.9,13.8c-4.5,1.3 -9,0.9 -13.7,1c-0.1,-1.1 -0.1,-2 -0.2,-3l2.5,-0c-1.1,-0.7 -1.6,-1 -2.5,-1.6c0,0.9 0.1,1.3 0.1,1.7Zm-38.6,34.6c0.8,-0.5 1.5,-0.9 2.5,-1.5c-1.9,-0.4 -1.9,-0.4 -2.4,1.7c-0.2,0.1 -0.3,0.2 -0.4,0.2c0.1,-0.2 0.2,-0.3 0.3,-0.4Zm40.7,-45.6c-1.9,1.5 -3.2,2.5 -5.1,4c1.9,0.1 3,0.2 4.2,0.2c0.3,-1.3 0.5,-2.3 0.9,-4.2Zm-24,84.9c-1.6,1 -1,2.1 -0.8,3.7c1.2,-1.4 1.4,-2.4 0.8,-3.7Zm31.1,-85.4c-0.1,-1.2 1,-2.6 -0.8,-4.2c0.1,1.7 -0.1,3 0.8,4.2Zm-9.5,36.7c-1.2,0.8 -1.7,1.5 0,2l0,-2Zm-34.1,-40c0.8,-1.3 0.8,-1.3 -0.5,-2.3c0.2,0.9 0.4,1.4 0.5,2.3Zm-2.1,84.2c-0.1,0.2 -0.1,0.5 -0.2,0.7c0.5,0.1 1,0.2 1.6,0.3c0,-0.2 0.1,-0.4 0.1,-0.6c-0.5,-0.1 -1,-0.3 -1.5,-0.4Zm32.2,-70.3c-0.2,-0.2 -0.4,-0.4 -0.6,-0.5c-0.3,0.5 -0.7,0.9 -1,1.4c0.1,0.1 0.3,0.2 0.4,0.3c0.4,-0.4 0.8,-0.8 1.2,-1.2Zm13,24.8c-0.2,-0.1 -0.3,-0.1 -0.5,-0.2c-0.2,0.5 -0.5,1 -0.7,1.5c0.2,0.1 0.3,0.1 0.5,0.2c0.3,-0.5 0.5,-1 0.7,-1.5Zm-23.8,0.9l-0.5,-0c0.1,0.4 0.1,0.8 0.2,1.3l0.3,-0l0,-1.3Zm-1.1,51c0.2,-0.1 0.3,-0.1 0.5,-0.2c-0.1,-0.3 -0.2,-0.7 -0.4,-1c0,-0 -0.4,0.1 -0.6,0.2c0.1,0.4 0.3,0.7 0.5,1Zm22.9,-8.4c0.1,0.1 0.2,0.1 0.3,0.2c0.2,-0.3 0.5,-0.5 0.7,-0.8c-0.2,-0.1 -0.4,-0.2 -0.6,-0.3c-0.1,0.2 -0.3,0.6 -0.4,0.9Zm-7.5,-71c-0.3,-0 -0.5,0.1 -0.8,0.1c0.1,0.4 0.2,0.7 0.3,1.1l0.6,-0.1c0.1,-0.4 0,-0.8 -0.1,-1.1Zm-28,-0.9c-0.1,0.1 -0.3,0.2 -0.4,0.4c0.1,0.4 0.3,0.8 0.4,1.2c0.2,-0.2 0.5,-0.4 0.7,-0.6c-0.3,-0.4 -0.5,-0.7 -0.7,-1Zm38.3,-5.1c-0.3,0.3 -0.5,0.4 -0.6,0.5c0.2,0.2 0.3,0.3 0.5,0.5c0,-0.3 0,-0.6 0.1,-1Zm2.5,75.7l0.2,-0c0,-0.3 0,-0.6 0.1,-0.9l-0.2,-0c-0.1,0.2 -0.1,0.5 -0.1,0.9Zm-51,-81.9c0.1,-0 0.3,-0.1 0.4,-0.1c-0.1,-0.3 -0.1,-0.6 -0.2,-0.8c-0.1,-0 -0.3,0.1 -0.4,0.1c0.1,0.2 0.2,0.5 0.2,0.8Zm34.2,53.8l-0.3,-0c0,0.3 0,0.6 -0.1,0.8l0.3,-0c0.1,-0.2 0.1,-0.5 0.1,-0.8Zm-31.9,-3.1c-0.1,0.1 -0.1,0.1 -0.2,0.2l0.4,-0c0,-0.1 -0.1,-0.2 -0.2,-0.2Zm42.7,-1.5c0,0.1 -0.1,0.2 -0.1,0.2c0,0.1 0.1,0.2 0.2,0.2c0,-0.2 0.1,-0.3 0.1,-0.5c0,0.1 -0.1,0.1 -0.2,0.1Zm-21.3,-4.9l0.1,-0.2l-0.2,-0l0.1,0.2Zm-7.5,42.5c0,0.1 -0.1,0.2 -0.1,0.2c0,0.1 0.1,0.2 0.2,0.3c0,-0.2 0.1,-0.3 0.1,-0.5l-0.2,-0Zm6,-2l0.2,0.1l0,-0.2l-0.2,0.1Zm3.2,-79l-0.2,-0.1l0,0.2l0.2,-0.1Z" style="fill:#212a5e;fill-rule:nonzero;"/><path d="M963.7,623.3c0.5,-0.1 1.1,-0.1 1.8,-0.2l0,2.9c-0.6,0.3 -1.3,0.5 -2.3,1c2.2,1.5 3,3.7 3.2,6.1c4.6,-0.6 9,-1.1 13.3,-1.7c2.4,-0.3 4.5,-0.2 6.6,1.3c1.2,0.9 2.8,1.3 4.4,2l0,17.3c-4.2,2.4 -7.3,2.3 -10.6,-0.5c-0.2,0.3 -0.3,0.6 -0.5,0.9c-0.1,0.2 -0.3,0.4 -0.6,0.9l-12.6,-0c-1.3,2.3 -0.3,4.6 -0.8,6.8c-0.4,0.4 -0.9,0.8 -1.7,1.5c0.6,0.6 1.2,1.1 2,1.8l0,10.2c1.6,0.4 3.2,-0 4.9,-0.1c1.6,-0.1 3.2,-0.3 4.8,-0.3c3.1,-0 3.3,0.2 4.5,3.5c0.2,-1 0.4,-1.8 0.6,-2.7c3.9,-0.2 7.7,-0.5 11.6,-0.7c0.4,-0 0.9,0.4 1.4,0.7c1.1,7.1 0.7,14.4 0.9,21.8l-51.4,-0c-0.8,-3.1 -1.1,-44.3 -0.4,-56.2c0.4,-0 0.8,-0.1 1.2,-0.1c-0.1,-1.3 -0.1,-1.3 -1.2,-2.2l0,-5.6c0.4,-0.4 0.8,-0.8 1.4,-1.3c-0.5,-0.5 -1,-0.9 -1.5,-1.4c0.3,-0.6 0.6,-1.2 0.8,-1.6c-0.3,-1.5 -0.9,-2.8 -0.8,-4c0.4,-5.8 -1,-11.2 -2.8,-16.6c-0.4,-1.1 -0.7,-2.3 -1,-3.3c2.9,-4.3 5.9,-6.6 10.8,-8.6c0.8,0.4 1.8,0.9 2.8,1.3c4.2,-0.8 25.2,-0.7 40.6,0.2c1.1,0.9 1.3,2.2 1.4,3.6c0.1,5.3 0.1,10.6 -0.9,15.9c-2.1,0.7 -4.2,0.3 -6.2,0.4c-2.1,0.1 -4.2,-0 -6.5,-0c-0.2,-0.5 -0.4,-1.2 -0.7,-2c-0.4,0.6 -0.9,1.3 -1.3,1.9c-4.3,0.7 -8.6,-0.6 -12.9,0.4c-0.1,1.4 -0.2,2.4 -0.3,3.7c-0.6,0.7 -1.4,1.5 -2.1,2.3c0,0.2 0,0.4 0.1,0.7Zm25.1,-20.5c1.5,-1.7 1.5,-2.1 0,-3.8l0,3.8Zm-36.8,62.2c-0.1,0.3 -0.2,0.6 -0.4,0.9c0.7,1.1 1.6,1.5 3.4,0.2c-1.3,-0.4 -2.1,-0.7 -3,-1.1Zm-0.2,3l0,3.2c0.8,-0.7 1.3,-1 1.9,-1.5c-0.5,-0.5 -0.8,-0.8 -1.9,-1.7Zm6.4,-0.6c1,1.5 1.7,1.2 2.1,-0.3c-0.8,0.2 -1.5,0.2 -2.1,0.3Zm-9,-3.1c-0.2,-0.1 -0.3,-0.1 -0.5,-0.2c-0.2,0.3 -0.4,0.7 -0.5,1c0.3,0.1 0.6,0.2 0.9,0.4c0,-0.4 0,-0.8 0.1,-1.2Zm-4.3,-18.8c-0.2,-0.1 -0.5,-0.3 -0.7,-0.4c-0.2,0.5 -0.4,0.9 -0.6,1.4c0.2,0.1 0.4,0.2 0.4,0.2c0.3,-0.4 0.6,-0.8 0.9,-1.2Zm37,-31.5c0.2,-0.4 0.3,-0.5 0.4,-0.9c-0.5,-0.3 -1.1,-0.5 -1.6,-0.7c-0.1,0.1 -0.2,0.3 -0.3,0.4c0.5,0.5 1,0.8 1.5,1.2Zm7.4,22.9c-0.2,-0.2 -0.4,-0.4 -0.6,-0.5c-0.3,0.5 -0.5,1 -0.8,1.5c0.1,0.1 0.3,0.1 0.4,0.2c0.3,-0.4 0.6,-0.8 1,-1.2Zm-42.7,44.3c0,-0.2 0.1,-0.5 0.1,-0.7c-0.5,0 -0.9,0.1 -1.4,0.1l0,0.4c0.5,0.1 0.9,0.1 1.3,0.2Zm43.3,-75.9c-0.1,-0.2 -0.1,-0.4 -0.2,-0.7c-0.2,0.1 -0.5,0.2 -0.5,0.2c0,0.3 0.1,0.5 0.2,0.8c0.1,-0.1 0.3,-0.2 0.5,-0.3Zm1.4,77.1l0,-0.3l-1,0l0,0.3l1,0Zm-22.2,0.5c-0.2,-0.1 -0.4,-0.2 -0.6,-0.2c-0.1,0 -0.2,0.3 -0.3,0.4c0.2,0.1 0.4,0.3 0.6,0.3c0.1,-0.1 0.2,-0.4 0.3,-0.5Zm22.8,-6.6l0,0.2l0.7,0l0,-0.2l-0.7,0Zm-26.4,9.8l0,-0.3l-1,0l0,0.3l1,0Zm0.6,-48.2l-0.2,0l0,0.8l0.2,0l0,-0.8Zm-13.4,-27.5l0,0.2c0.3,0 0.5,0 0.8,0.1l0,-0.2c-0.3,0 -0.5,-0.1 -0.8,-0.1Zm18.6,66.6c-0.1,0 -0.2,-0.1 -0.2,-0.1c-0.1,0 -0.2,0.1 -0.2,0.2c0.1,0 0.3,0.1 0.4,0.1l0,-0.2Z" style="fill:#212a5e;fill-rule:nonzero;"/><path d="M342.7,693.7c-0.7,0.4 -1.4,0.9 -2.2,1.4c-2,-0.5 -4.2,-0.9 -6.3,-1.5c-5.8,-1.4 -10.5,-4.9 -14.6,-8.9c-4.1,-4.1 -5.3,-9.5 -5.7,-15.2c-0.2,-3.7 -0.7,-7.4 -0.4,-11c0.1,-2 0,-3.7 -0.4,-5.6c-0.2,-1.4 0.2,-2.8 0.4,-5c-0.7,-1.5 -0.3,-3.9 -0.2,-6.3c0.1,-2.4 0,-4.9 0,-7.3c0.1,-4.6 0,-9.3 0.2,-13.9c0.1,-3 0.7,-6 1.1,-9.1c0.4,-3.7 2.3,-6.8 4.5,-9.7c1.7,-2.3 3.4,-4.5 5.4,-6.5c0.8,-0.8 2.3,-1 4.2,-1.9c1.6,-2.9 4.9,-3.9 8.8,-3.8c2.2,0 4.4,-0.4 6.6,-0.6c1.5,-0.1 3,-0.2 4.4,-0.1c1.4,0.1 2.8,0.5 4.9,0.9c0.2,-0.3 0.5,-0.9 0.8,-1.4c3.6,0 7.1,-0.1 10.5,0c3.3,0.2 6.6,0.7 10.3,1c0.6,2.4 -0.1,5.3 0.2,8.2c-0.9,0.8 -1.6,1.4 -2.7,2.4c1.1,0.5 1.8,0.8 2.6,1.1l0,3c-1,0.2 -1.8,0.4 -3.6,0.9c1.6,0.7 2.5,1 3.7,1.5c-0.1,0.8 -0.3,1.7 -0.4,2.9c-1.7,-0.4 -3.1,-0.7 -5.1,-1.1c-0.1,0.2 -0.5,0.9 -0.8,1.4c-3.7,0 -7.3,-0.1 -10.8,0c-2,0 -3.6,-0.6 -4.6,-2.5c-0.7,0.8 -1.2,1.4 -1.6,1.9c-2.7,0.2 -4.7,-2.7 -7.5,-0.8c-0.2,0.8 0.3,2 -0.6,3c-0.8,0.8 -1.6,2.2 -1.5,3.3c0.3,3.4 -1.1,6.4 -2.2,9.7c-1.4,-0.4 -2.9,-0.8 -5,-1.4c0.5,0.9 0.7,1.6 1.1,1.9c1,0.6 2.2,1.1 3.6,1.7c-0.6,7.6 1.4,15.1 0.4,22.7c-3.1,2.2 -3.3,2.5 -1.9,4.8c0.4,-0.5 0.8,-0.9 1.1,-1.3c0.2,0.1 0.4,0.2 0.5,0.4c0.3,1.2 0.6,2.4 0.7,3.6c0.1,2.5 0.1,4.9 0,7.4c-0.1,2 0.2,3.9 1.5,5.7c-0.6,0.4 -1.2,0.9 -1.9,1.4c0.3,0.3 0.6,0.7 1,0.9c1.6,0.7 3.3,1.3 4.8,2.3c3.4,0.3 6.9,0.6 10.4,0.8c0.8,0.7 1.6,1.4 2.7,2.4c1.4,-0.7 2.9,-1.4 4.9,-2.4l10.1,0c1.8,2.6 1.4,5.5 1.2,8.4c-0.7,-0.1 -1.3,-0.1 -2.2,-0.2c0.9,1.1 1.6,1.8 2.3,2.6c-0.1,2.7 0.7,5.5 -0.7,8.5c-0.9,-0.3 -1.5,-0.4 -2.4,-0.7c-2.1,1.4 -4.8,1.5 -7.5,1.4c-4.9,0 -9.8,0.1 -14.6,0c-2.3,-0.1 -4.5,-0.6 -6.8,-0.9c-0.5,0.1 -0.6,-0.2 -0.7,-0.4c0.6,-0.1 1.2,-0.2 2.3,-0.4c-1.5,-1.1 -2,-0.7 -2.3,0.4Zm26.4,-2.9c0.3,0.2 0.5,0.5 0.8,0.7c1.2,-0.7 2.4,-1.4 3.5,-2.2c-0.4,-1.3 0.1,-2.6 -1.8,-3.1c-0.8,1.6 -1.6,3.1 -2.5,4.6Zm-42.3,-18.3l-0.3,0c0,0.3 0,0.6 0.1,0.9l0.3,0c0,-0.3 0,-0.6 -0.1,-0.9Z" style="fill:#212a5e;fill-rule:nonzero;"/><path d="M645.7,593.4c-0.8,-0.5 -1.5,-1 -1.9,-1.3c0,-0.7 0,-1 0.1,-1.2c1.1,-2.6 3.4,-3.6 5.9,-3.6c5.9,0.1 11.8,0.5 17.7,0.8c1.3,0.1 2.4,0.4 3,2.2c-1.4,2.3 -1,5 -0.5,7.8c0.7,4.1 -0.1,8.3 -0.9,12.4c-0.3,1.4 -0.7,2.9 -0.5,4.4c0.2,1.9 -0.4,3.6 -1.1,5.2c1.3,2.3 1.6,4.8 1.4,7.4c0,0.4 -0.2,0.7 -0.1,1.1c1.5,6.3 0.3,12.7 0.7,19.6c-0.8,0.7 -1.9,1.6 -3,2.7c0,0.8 0.1,1.7 0.2,3.6c0.8,-1.9 1.2,-3 1.8,-4.4c0.4,2.5 0.8,4.7 -1.2,6.6c0.7,0.5 1.3,0.9 2.2,1.5l0,13.9c0.9,0.2 1.6,0.4 2.3,0.5c9.2,0.2 18.4,0.3 27.7,0.4l10.4,0c0.2,2.5 0.5,4.6 0.7,7.3c-0.4,0.7 -1.1,1.8 -1.8,3c2.5,3.8 0.7,8.1 1.4,12.2c-2.8,1 -5.5,0.4 -8.1,0.5c-2.6,0.1 -5.2,0 -7.8,0l-48.2,0c-0.4,-2.5 -0.1,-4.8 -0.2,-7.3c0.4,-0.4 0.8,-0.9 1.3,-1.4c0.1,-1.4 0.3,-2.8 0.4,-4.3c-0.6,-0.2 -1.1,-0.4 -1.9,-0.7c0.8,-0.6 1.4,-1.2 2.2,-1.8l0,-4c-0.6,0.1 -1.1,0.3 -1.7,0.4c-0.1,-0.3 -0.3,-0.7 -0.3,-1c0,-22.9 -0.1,-45.8 0,-68.7c0,-1.9 0.7,-3.9 0.6,-5.8c-0.2,-2.7 -0.6,-5.2 -0.8,-8Zm23.2,99.2l-4.1,-0c1.9,2.4 1.9,2.4 4.1,-0Zm-10.3,-14c-0.5,2.1 -0.4,2.1 -0,3.8c0.7,-1.4 0.7,-1.4 -0,-3.8Zm-8.1,-80.2c-1.4,1 -1,1.5 0.4,2.1c-0.2,-0.9 -0.3,-1.5 -0.4,-2.1Zm2.9,70.8c-0.2,0.1 -0.4,0.2 -0.7,0.2c-0,0.4 -0.1,0.8 -0.1,1.4c0.7,-0.1 1.1,-0.1 1.9,-0.2c-0.5,-0.6 -0.8,-1 -1.1,-1.4Zm17.1,12.4c-0.1,-0.2 -0.2,-0.3 -0.3,-0.5c-0.7,0.3 -1.4,0.6 -2.1,0.9c0.5,0.4 0.9,0.4 1.2,0.3c0.4,-0.2 0.8,-0.5 1.2,-0.7Zm-20.5,-87.1c-0,-0.3 -0.1,-0.6 -0.1,-0.9c-0.4,0.2 -0.8,0.4 -1.2,0.5c-0,0.2 0.1,0.3 0.1,0.5c0.4,-0.1 0.8,-0.1 1.2,-0.1Z" style="fill:#212a5e;fill-rule:nonzero;"/><path d="M580.3,590.3c2.5,0.3 4.8,-0.4 6.8,1.3c0.6,0.5 2.1,0.1 3.4,0.1c0.5,2.3 1.5,4.3 1.5,6.8c-0,4.8 0.8,9.5 1.3,14.3c0.1,0.7 0.3,1.4 0.5,2.2c0.7,3.9 -0.3,7.9 0.8,11.7c-1.1,1.7 -0.7,3.5 -0.1,5.3c0.3,0.9 0.3,2 -0,2.9c-0.8,3 -0.7,5.9 -0.1,9c0.5,2.7 0.2,5.6 -0,8.3c-0.3,4.6 0.5,9.2 0.4,13.8c-0.1,1.5 0.4,3.1 0.6,4.9l5.3,-0c6.3,-0.2 12.5,-0.4 18.8,-0.6c4,-0.1 7.8,0.2 11.4,2.2c1.1,0.6 2.6,0.5 4.1,0.8c1.2,2.6 -0.6,5.3 -0.4,8c-0.5,0.5 -1,0.9 -1.7,1.6c0.8,0.4 1.4,0.6 2.2,0.9l-0,11.9l-63.4,-0c-0.2,-0.3 -0.5,-0.6 -0.5,-1c-1.3,-16.5 -0.9,-32.9 -0.7,-49.4c0.1,-11.6 0.3,-23.1 0.6,-34.7c0.1,-4.1 0.5,-8.3 0.6,-12.4c-0,-0.9 -0.2,-1.9 -0.6,-2.8c-1.5,-3.4 0.2,-6.3 3.9,-6.7c2.1,-0.2 3.9,0.5 5.3,1.6Zm7.7,93c-0.1,-0.6 -0.3,-1.4 -0.5,-2.5c-1,1.5 -1.7,2.5 -2.6,4c1.6,-0.1 2.7,-0.2 4.1,-0.4c-0.6,-0.5 -0.8,-0.8 -1,-1.1Zm29.9,-0.6c2.2,1.1 4.4,1.1 6.8,-0.1c-1.3,-0.3 -2.4,-0.5 -3.6,-0.8c-0.1,0 -0.2,-0.3 -0.3,-0.4c0.8,-0.2 1.6,-0.4 2.5,-0.6c-2.6,-2.5 -4.4,-2.7 -8.6,-1c-0.5,1.1 -1,2.3 -1.8,4c2.1,-0.4 3.3,-0.7 5,-1.1Zm-22.4,7.8c-0.2,-0.2 -0.4,-0.4 -0.7,-0.6c-1.5,0.9 -3.1,1.8 -5.1,3c1.4,0.8 2.4,1.4 3.7,2.1c0.8,-1.8 1.4,-3.2 2.1,-4.5Zm17.1,-0.4c-0.1,-0.2 -0.3,-0.5 -0.4,-0.7c-0.9,0.1 -1.8,0.2 -2.9,0.4c0.4,1.1 0.6,1.8 1,3.1c1,-1.3 1.6,-2 2.3,-2.8Zm-7.4,2.4c0.5,-1.1 0.8,-1.6 1.2,-2.4c-1.1,0.1 -2,0.3 -3.4,0.4c0.9,0.9 1.4,1.3 2.2,2Zm-26.4,-23.3c-0.6,1.3 -0.8,2.3 1.1,3.2c0,-1.4 0.4,-2.4 -1.1,-3.2Zm-4.2,4.6c0.2,0.2 0.5,0.5 0.7,0.7c0.5,-0.8 1.1,-1.6 1.6,-2.4c-0.2,-0.2 -0.4,-0.3 -0.6,-0.5c-0.5,0.7 -1.1,1.5 -1.7,2.2Zm1.4,-72.6c0.5,-1.3 0.7,-1.8 0.9,-2.6c-0.8,0 -1.3,-0.1 -2,-0.1c0.3,0.8 0.5,1.4 1.1,2.7Zm6.4,28.4c0.9,-1.2 0.9,-1.2 -0.2,-2.3c0.1,0.8 0.1,1.4 0.2,2.3Zm35.4,61c0.5,-0.3 1,-0.6 1.4,-0.9c-0.1,-0.1 -0.1,-0.2 -0.2,-0.4c-0.6,0.1 -1.2,0.1 -2.2,0.3c0.6,0.6 0.7,0.7 1,1Zm16.6,-3.6c-0.1,-0.2 -0.3,-0.3 -0.4,-0.5c-0.2,0.2 -0.4,0.5 -0.6,0.7c0.2,0.1 0.4,0.3 0.6,0.3c0.1,-0.1 0.2,-0.4 0.4,-0.5Zm-51.8,-63.3c-0.1,0.1 -0.3,0.1 -0.4,0.2c0.1,0.3 0.2,0.7 0.4,1c0,0 0.4,-0.1 0.6,-0.2c-0.2,-0.3 -0.4,-0.7 -0.6,-1Zm-2.2,38.5l-0.3,0l0,1l0.3,0l0,-1Zm4.4,19.4l-0.2,0l0,0.8l0.2,0l0,-0.8Z" style="fill:#212a5e;fill-rule:nonzero;"/><path d="M29.1,33.8c-1.5,1.2 -3.1,1.3 -4.7,0.2c-0.8,-0.5 -1.5,-1.3 -2.2,-1.9c-1.5,-1.4 -3,-2.9 -4.4,-4.4c-0.8,-0.8 -1.7,-1.5 -2.3,-2.4c-1.4,-1.9 -1.2,-3.7 0.3,-5.4c1.5,-1.6 3.9,-2.3 5.7,-1.2c1.3,0.8 2.3,2.1 3.5,3.2c7.6,6.4 6.5,10.1 4.1,11.9Z" style="fill:#212a5e;fill-rule:nonzero;"/><path d="M30.7,25.8c-2.6,-2.7 -5.4,-5.3 -7.8,-8.2c-1.8,-2.3 -1.3,-4.7 0.9,-6.4c1.9,-1.5 4.8,-1.6 6.6,0.6c0.2,0.2 0.3,0.4 0.5,0.6c1,1.3 1.9,2.5 3,4c-0.5,0.4 -0.9,0.8 -1.4,1.2c-3.1,2.2 -3.4,3.3 -2.1,6.8c0.2,0.5 0.3,0.9 0.4,1.4l-0.1,0Z" style="fill:#212a5e;fill-rule:nonzero;"/><path d="M32.1,28.1c-0.4,-0.4 -3.3,-4.4 -4.1,-5.2l1.9,-0.5c0.7,2.4 1.3,3.1 1.3,3.2c1.9,2.4 4.9,2.1 7.6,0.7c0.1,0.1 -3.2,5 -6.7,1.8Z" style="fill:#212a5e;fill-rule:nonzero;"/><path d="M534.4,589.1c-1.3,-0.3 -1.9,-0.5 -2.8,-0.7c1.2,-1.3 1.9,-1.4 2.8,0.7Z" style="fill:#212a5e;fill-rule:nonzero;"/><path d="M785.3,404.3c-0.4,0.5 -0.7,0.9 -0.9,1.2c-0.2,-0.1 -0.3,-0.2 -0.5,-0.3c0.1,-0.3 0.1,-0.8 0.4,-1c-0,-0.1 0.5,0.1 1,0.1Z" style="fill:#00acd8;fill-rule:nonzero;"/><path d="M926.4,695.4c-0.2,0.1 -0.3,0.1 -0.5,0.2l0,-0.6c0,-0.1 0.2,-0.1 0.2,-0.2c0.1,0.2 0.2,0.4 0.3,0.6Z" style="fill:#212a5e;fill-rule:nonzero;"/><rect x="371.7" y="695.4" width="0.9" height="0.3" style="fill:#212a5e;fill-rule:nonzero;"/></g><path d="M493.2,783.8c-5,4.1 -10.4,6.8 -17,6.8c-5.9,-0.1 -11,-2.1 -15.5,-5.8c-1.4,-1.2 -2.7,-2.5 -4.2,-3.6c-6.5,-5.2 -13.7,-6.7 -21.7,-4.1c-4,1.3 -7.6,3.4 -10.7,6.3c-4.6,4.4 -9.9,7.2 -16.4,7.3c-8.2,0.2 -15,-2.7 -20.1,-9c-3.4,-4.1 -7.8,-5.4 -12.6,-5.8c-8,-0.7 -14.9,2.2 -20.9,7.5c-3.8,3.4 -8.1,5.8 -13.2,6.9c-3.5,0.7 -6.9,0.3 -10.1,-0.7c-12.1,-3.8 -18,-14.6 -17.6,-24.8c0.6,-12.9 10.4,-23.4 23.8,-24c5.2,-0.2 10.1,1.6 14.4,4.9c1.4,1.1 2.8,2.4 4.2,3.6c4.7,3.8 9.9,6.2 16.2,6.1c2.8,-0.1 5.6,0.1 8.4,-0.8c3.1,-1 5.7,-2.5 7.8,-5.2c3.3,-4.2 7.8,-6.7 12.9,-8c8.7,-2.4 16.2,0.3 22.6,6.3c3.7,3.4 7.7,6.1 12.6,7.2c8.1,1.8 15.3,0.2 21.6,-5.4c2.3,-2 4.6,-4.2 7.3,-5.6c9.1,-4.9 17.9,-4 26.2,2.1c1.5,1.1 2.8,2.4 4.2,3.6c7.9,6.4 6.1,28.1 -2.2,34.2Zm-155.7,-30.3l-1.4,-0c-5.5,0.1 -10.6,3.7 -11.7,8.8c-1.1,5.2 0.2,10.4 5.6,13.6c4.2,2.5 8.6,2.5 13,0.7c7.3,-3.1 9.6,-12.2 4.7,-18.4c-2.6,-3.5 -6.1,-5 -10.2,-4.7Zm138.7,-0c-6,-0.8 -12.7,5.4 -12.5,12.1c0.2,5.9 4.5,12.2 12.6,12.1c8.2,-0.1 12.5,-6.3 12.5,-12.3c-0,-6.5 -5.6,-12.4 -12.6,-11.9Zm-69.6,23.9c7.3,-0 12,-4.8 12.3,-11.7c0.3,-5.7 -5.2,-12.4 -12.5,-12.1c-7,0.3 -12.9,5.7 -12.4,12.3c0.5,7.8 6.5,12 12.6,11.5Z" style="fill:#00acd8;fill-rule:nonzero;"/><path d="M563.4,783.8c-5,4.1 -10.4,6.8 -17,6.8c-5.9,-0.1 -11,-2.1 -15.5,-5.8c-1.4,-1.2 -2.7,-2.5 -4.2,-3.6c-6.5,-5.2 -13.7,-6.7 -21.7,-4.1c-4,1.3 -7.6,3.4 -10.7,6.3c-4.6,4.4 -9.9,7.2 -16.4,7.3c-8.2,0.2 -15,-2.7 -20.1,-9c-3.4,-4.1 -7.8,-5.4 -12.6,-5.8c-8,-0.7 -14.9,2.2 -20.9,7.5c-3.8,3.4 -8.1,5.8 -13.2,6.9c-3.5,0.7 -6.9,0.3 -10.1,-0.7c-12.1,-3.8 -18,-14.6 -17.6,-24.8c0.6,-12.9 10.4,-23.4 23.8,-24c5.2,-0.2 10.1,1.6 14.4,4.9c1.4,1.1 2.8,2.4 4.2,3.6c4.7,3.8 9.9,6.2 16.2,6.1c2.8,-0.1 5.6,0.1 8.4,-0.8c3.1,-1 5.7,-2.5 7.8,-5.2c3.3,-4.2 7.8,-6.7 12.9,-8c8.7,-2.4 16.2,0.3 22.6,6.3c3.7,3.4 7.7,6.1 12.6,7.2c8.1,1.8 15.3,0.2 21.6,-5.4c2.3,-2 4.6,-4.2 7.3,-5.6c9.1,-4.9 17.9,-4 26.2,2.1c1.5,1.1 2.8,2.4 4.2,3.6c7.9,6.4 6.1,28.1 -2.2,34.2Zm-155.7,-30.3l-1.4,-0c-5.5,0.1 -10.6,3.7 -11.7,8.8c-1.1,5.2 0.2,10.4 5.6,13.6c4.2,2.5 8.6,2.5 13,0.7c7.3,-3.1 9.6,-12.2 4.7,-18.4c-2.6,-3.5 -6.1,-5 -10.2,-4.7Zm138.7,-0c-6,-0.8 -12.7,5.4 -12.5,12.1c0.2,5.9 4.5,12.2 12.6,12.1c8.2,-0.1 12.5,-6.3 12.5,-12.3c0,-6.5 -5.6,-12.4 -12.6,-11.9Zm-69.6,23.9c7.3,-0 12,-4.8 12.3,-11.7c0.3,-5.7 -5.2,-12.4 -12.5,-12.1c-7,0.3 -12.9,5.7 -12.4,12.3c0.5,7.8 6.5,12 12.6,11.5Z" style="fill:#00acd8;fill-rule:nonzero;"/><path d="M809.1,749.4c1.7,-1.5 3.4,-3.2 5.4,-4.5c9.9,-6.5 21.4,-5.8 30.8,2.7c2.9,2.6 5.9,4.8 9.5,6.1c9.4,3.2 17.9,1.8 25.2,-5.1c3.4,-3.2 7,-5.7 11.5,-7c9.2,-2.7 17.5,-1 24.8,5.1c4.1,3.4 8.2,6.7 13.5,7.8c8.5,1.7 16.4,0.8 23,-5.4c3.1,-2.9 6.3,-5.5 10.3,-6.9c8.8,-3.1 16.7,-1.2 23.6,4.9c4.5,3.9 7,9 7.9,14.9c1.1,6.8 -0.6,12.9 -4.5,18.4c-4.1,5.8 -9.9,9.3 -16.9,10.1c-6.7,0.8 -12.6,-1.6 -17.7,-5.9c-0.6,-0.5 -1.1,-1 -1.6,-1.5c-8.6,-8.5 -20.4,-9.4 -30.5,-3.8c-2.2,1.3 -4.3,2.8 -6.2,4.6c-8.9,8.1 -22.6,8.9 -31.8,3.1c-2.3,-1.4 -4.3,-3.3 -6.3,-5.1c-5.3,-4.7 -11.4,-6.8 -18.3,-5.9c-6,0.8 -11.2,3.6 -15.6,7.6c-3.1,2.9 -6.6,5.1 -10.8,6.2c-8.8,2.2 -16.4,0 -23.2,-6c-2.3,-2.1 -16.1,-16.9 -2.1,-34.4Zm175,16.2c0,-4.8 -3,-9.4 -7.5,-11.2c-3,-1.3 -6.1,-1.1 -9.1,-0.7c-6.6,0.8 -11.1,8.1 -9.5,14.5c1.6,6.4 7.6,10.5 14.9,9.6c6.5,-0.9 11.1,-6.1 11.2,-12.2Zm-156,-12.1c-6.9,-0.7 -12.8,6.1 -12.5,12c0.2,6.7 5.7,12.4 12.6,12.2c8.3,-0.2 12.6,-6.8 12.6,-12.3c0,-5.5 -5.2,-12.4 -12.7,-11.9Zm70.9,23.8c2.5,-0 4.4,-0.5 6.3,-1.8c3.7,-2.6 6.8,-8 4.7,-13.9c-2.5,-7 -10.1,-10.2 -16,-6.6c-4.7,2.8 -7.2,8.3 -5.8,13.6c1.4,5.4 6,9 10.8,8.7Z" style="fill:#00acd8;fill-rule:nonzero;"/><path d="M737.5,749.4c1.7,-1.5 3.4,-3.2 5.4,-4.5c9.9,-6.5 21.4,-5.8 30.8,2.7c2.9,2.6 5.9,4.8 9.5,6.1c9.4,3.2 17.9,1.8 25.2,-5.1c3.4,-3.2 7,-5.7 11.5,-7c9.2,-2.7 17.5,-1 24.8,5.1c4.1,3.4 8.2,6.7 13.5,7.8c8.5,1.7 16.4,0.8 23,-5.4c3.1,-2.9 6.3,-5.5 10.3,-6.9c8.8,-3.1 16.7,-1.2 23.6,4.9c4.5,3.9 7,9 7.9,14.9c1.1,6.8 -0.6,12.9 -4.5,18.4c-4.1,5.8 -9.9,9.3 -16.9,10.1c-6.7,0.8 -12.6,-1.6 -17.7,-5.9c-0.6,-0.5 -1.1,-1 -1.6,-1.5c-8.6,-8.5 -20.4,-9.4 -30.5,-3.8c-2.2,1.3 -4.3,2.8 -6.2,4.6c-8.9,8.1 -22.6,8.9 -31.8,3.1c-2.3,-1.4 -4.3,-3.3 -6.3,-5.1c-5.3,-4.7 -11.4,-6.8 -18.3,-5.9c-6,0.8 -11.2,3.6 -15.6,7.6c-3.1,2.9 -6.6,5.1 -10.8,6.2c-8.8,2.2 -16.4,0 -23.2,-6c-2.4,-2.1 -16.2,-16.9 -2.1,-34.4Zm174.9,16.2c0,-4.8 -3,-9.4 -7.5,-11.2c-3,-1.3 -6.1,-1.1 -9.1,-0.7c-6.6,0.8 -11.1,8.1 -9.5,14.5c1.6,6.4 7.6,10.5 14.9,9.6c6.5,-0.9 11.2,-6.1 11.2,-12.2Zm-156,-12.1c-6.9,-0.7 -12.8,6.1 -12.5,12c0.2,6.7 5.7,12.4 12.6,12.2c8.3,-0.2 12.6,-6.8 12.6,-12.3c0,-5.5 -5.2,-12.4 -12.7,-11.9Zm71,23.8c2.5,-0 4.4,-0.5 6.3,-1.8c3.7,-2.6 6.8,-8 4.7,-13.9c-2.5,-7 -10.1,-10.2 -16,-6.6c-4.7,2.8 -7.2,8.3 -5.8,13.6c1.4,5.4 5.9,9 10.8,8.7Z" style="fill:#00acd8;fill-rule:nonzero;"/><g><path d="M613.7,731.3l8.3,-0.7c2.7,-0 4.6,0.3 5.6,1c0.3,6.3 0.4,13.8 0.4,22.3c0,8.6 -0.5,17.6 -1.5,27.3c-0.6,4.3 -2.2,7.9 -4.9,10.8c-3.3,3.4 -7.9,5.2 -14.1,5.2c-7.2,-0 -12.9,-2.1 -17.1,-6.2c-2.6,-2.6 -4,-5.7 -4.1,-9.4l0.5,-42c0,-5.9 -0.1,-8.9 -0.2,-9l0.1,-0l7.1,-0.2c2.8,-0 4.9,0.2 6.4,0.7l0,0.1c-0.3,5.5 -0.4,12.1 -0.4,19.9c0,7.8 0.4,16.8 1.2,27.1c0.8,2.9 2.7,4.3 5.7,4.3c1,-0 1.9,-0.3 3,-0.8c1.7,-0.8 2.7,-2.2 3.1,-4c0.3,-5.8 0.4,-14.1 0.6,-25c0.1,-10.9 0.2,-18 0.3,-21.4Z" style="fill:#d76927;fill-rule:nonzero;"/><path d="M636.4,775.5l10.5,0.3c0.2,2.8 1.7,4.7 4.5,5.6c1,0.4 2,0.6 3.3,0.6c1.2,0 2.4,-0.5 3.5,-1.5c1.1,-1 1.7,-2.3 1.7,-4c0,-2.1 -0.5,-3.7 -1.5,-4.7c-1.3,-1.3 -2.5,-2.1 -3.5,-2.5c-1.1,-0.4 -2.1,-0.7 -3,-1c-0.9,-0.2 -1.5,-0.4 -1.8,-0.4c-2.4,-0.4 -3.7,-0.7 -3.9,-0.8c-2.2,-0.4 -4.4,-1.5 -6.5,-3.3c-4.3,-4.1 -6.4,-9 -6.4,-14.7c0,-4.7 1.7,-9 5,-13.1c2.2,-2.6 4.8,-4.6 7.8,-5.8c2.7,-1 5.7,-1.5 8.9,-1.5c4.5,0 8.6,0.9 12.3,2.6c3.3,1.7 5.6,4.1 7.2,7.3c1,2.1 1.5,4.2 1.5,6.2c0,2 -0.2,3.8 -0.5,5.5l-0.1,0c-2.8,0.4 -5.4,0.7 -7.8,0.7c-2.4,0 -4.6,-0.3 -6.5,-0.8c0.1,-0.4 0.2,-0.9 0.2,-1.3c0,-1.5 -0.7,-2.8 -2.2,-3.8c-1.4,-1 -2.7,-1.5 -3.7,-1.5c-4.7,0 -6.8,2.3 -6.3,6.9c0.8,2.2 2.8,3.6 6.2,4.1c3.4,0.4 6.5,1.5 9.4,3.3c2.9,1.8 5.3,4.1 7.2,6.8c2.4,3.1 3.6,6.6 3.6,10.5c0,3.9 -0.7,7.2 -2.1,10c-1.5,3.8 -3.8,6.5 -7.1,8.3c-3.3,1.8 -6.8,2.7 -10.6,2.7c-4,0 -7.8,-0.8 -11.5,-2.3c-3.6,-1.6 -6.5,-3.8 -8.7,-6.7c-2.1,-2.9 -3.2,-6 -3.2,-9.4l0,-1.7c0.4,-0.5 1.7,-0.6 4.1,-0.6Z" style="fill:#d76927;fill-rule:nonzero;"/><path d="M691.7,728.6c0.9,-0.1 1.5,-0.2 1.8,-0.1c0.3,0.1 1.1,0.1 2.5,0.1c1.3,0 3.8,-0.2 7.5,-0.5l7.8,33.9l7.2,33.5l0,0.1c-1.6,0.3 -3.4,0.5 -5.6,0.5c-2.1,0 -4.5,-0.3 -7.3,-0.9l-0.1,0c-0.4,-1.2 -1.1,-3.8 -2.1,-7.7c-1,-3.9 -1.8,-6.6 -2.4,-7.9c-0.3,-0.2 -0.9,-0.3 -1.8,-0.3l-4.1,0.2c-0.5,1.2 -1.1,3.8 -1.9,7.8c-0.8,4 -1.5,6.7 -2.3,8.2c-0.6,0.1 -1.1,0.2 -1.7,0.2l-12,-0.2c-0.1,0 -0.1,0 -0.2,-0.1c0.1,-0.2 0.7,-3.8 1.9,-10.8c1.2,-7 3,-15.8 5.3,-26.5c2.3,-10.6 4.8,-20.4 7.5,-29.5Zm2.8,39.6l7.1,-0c-1.5,-13.3 -2.7,-20 -3.6,-20c-0.3,-0 -0.5,0.5 -0.8,1.4c-0.3,1 -1.2,7.2 -2.7,18.6Z" style="fill:#d76927;fill-rule:nonzero;"/></g></g></svg>